<?xml version="1.0" encoding="UTF-8" standalone="no"?>
<!DOCTYPE svg  PUBLIC '-//W3C//DTD SVG 1.1//EN'  'http://www.w3.org/Graphics/SVG/1.1/DTD/svg11.dtd'>
<svg xmlns="http://www.w3.org/2000/svg">
<defs>
<font id="Circe-Light" horiz-adv-x="589">
<font-face underline-position="-50" font-weight="350" descent="-200" panose-1="2 11 4 2 2 2 3 2 2 3" units-per-em="1000" unicode-range="U+0020-0491" bbox="-74 -252 1022 873" x-height="450" underline-thickness="50" font-family="Circe" ascent="800" cap-height="700"/>
<missing-glyph horiz-adv-x="1000"/>
<glyph glyph-name=".notdef" horiz-adv-x="1000"/>
<glyph glyph-name=".null" horiz-adv-x="0"/>
<glyph glyph-name="nonmarkingreturn" horiz-adv-x="333"/>
<glyph glyph-name="space" horiz-adv-x="235" unicode=" "/>
<glyph glyph-name="exclam" horiz-adv-x="310" unicode="!" d="M116 38q0 14 11.5 25t28.5 11q15 0 26 -11t11 -25q0 -16 -11 -28t-26 -12q-17 0 -28.5 12t-11.5 28zM127 193v507h55v-507h-55z"/>
<glyph glyph-name="quotedbl" horiz-adv-x="401" unicode='&quot;' d="M99 492v208h52v-208h-52zM250 492v208h52v-208h-52z"/>
<glyph glyph-name="numbersign" horiz-adv-x="688" unicode="#" d="M273 447l-72 -194h210l72 194h-210zM320 6l74 201h-210l-80 -216l-41 15l74 201h-97v46h114l72 194h-186v46h203l81 216l41 -15l-75 -201h210l81 216l41 -14l-75 -202h101v-46h-118l-71 -194h189v-46h-206l-80 -216z"/>
<glyph glyph-name="dollar" d="M455 174q0 40 -20 69.5t-52 47.5t-70.5 33.5t-77 32t-70.5 38t-52 57t-20 82.5q0 70 49 118.5t133 55.5v82h52v-82q107 -9 163 -70l-31 -41q-58 60 -156 60q-71 0 -111.5 -33.5t-40.5 -89.5q0 -40 20 -68.5t52 -46t70.5 -32t77 -31t70.5 -38t52 -58t20 -85.5 q0 -75 -52 -124.5t-134 -57.5v-93h-52v92q-62 4 -117.5 31t-79.5 69l33 38q30 -40 81.5 -63.5t100.5 -23.5q68 0 115 34.5t47 96.5z" unicode="$"/>
<glyph glyph-name="percent" horiz-adv-x="850" unicode="%" d="M504 159q0 -53 36.5 -86.5t86.5 -33.5q51 0 87 33.5t36 86.5q0 52 -36.5 85.5t-86.5 33.5t-86.5 -33.5t-36.5 -85.5zM455 159q0 71 49 116.5t123 45.5t123 -45.5t49 -116.5t-49 -117t-123 -46t-123 46t-49 117zM100 542q0 -53 36.5 -86.5t86.5 -33.5q51 0 87 33.5 t36 86.5q0 52 -36.5 85.5t-86.5 33.5t-86.5 -33.5t-36.5 -85.5zM51 542q0 71 49 116.5t123 45.5t123 -45.5t49 -116.5t-49 -117t-123 -46t-123 46t-49 117zM151 13l521 696l31 -22l-521 -696z"/>
<glyph glyph-name="ampersand" horiz-adv-x="737" unicode="&amp;" d="M199 570q0 -39 28 -67t68 -28t68 28t28 67q0 40 -28.5 68t-67.5 28q-40 0 -68 -28t-28 -68zM297 43q120 0 190 105l-202 261q-69 -50 -109 -100t-40 -109q0 -69 47.5 -113t113.5 -44zM604 0l-85 107q-81 -116 -223 -116q-94 0 -156 56t-62 143q0 79 48.5 138.5 t125.5 110.5q-45 11 -73.5 46.5t-28.5 84.5q0 60 42.5 99.5t102.5 39.5t102.5 -39.5t42.5 -99.5q0 -51 -33.5 -89t-81.5 -43l198 -252q66 114 66 264h51q0 -178 -85 -306l114 -144h-65z"/>
<glyph glyph-name="quotesingle" horiz-adv-x="250" unicode="&apos;" d="M99 492v208h52v-208h-52z"/>
<glyph glyph-name="parenleft" horiz-adv-x="276" unicode="(" d="M276 -177l-34 -29q-202 174 -202 431q0 248 203 431l33 -29q-98 -91 -141 -189t-43 -213q0 -113 46.5 -217.5t137.5 -184.5z"/>
<glyph glyph-name="parenright" horiz-adv-x="276" unicode=")" d="M34 -206l-34 29q91 80 137.5 184.5t46.5 217.5q0 115 -43 213t-141 189l33 29q203 -183 203 -431q0 -257 -202 -431z"/>
<glyph glyph-name="asterisk" horiz-adv-x="460" unicode="*" d="M83 602q0 17 11.5 29t29.5 12q15 0 26.5 -12t11.5 -29q0 -16 -11.5 -27t-26.5 -11q-18 0 -29.5 11t-11.5 27zM83 481q0 16 11.5 28t29.5 12q15 0 26.5 -12t11.5 -28t-11.5 -27.5t-26.5 -11.5q-18 0 -29.5 11t-11.5 28zM297 481q0 16 12 28t29 12q16 0 27.5 -12t11.5 -28 t-11.5 -27.5t-27.5 -11.5q-17 0 -29 11.5t-12 27.5zM297 602q0 17 12 29t29 12q16 0 27.5 -12t11.5 -29q0 -16 -11.5 -27t-27.5 -11q-17 0 -29 11t-12 27zM191 415q0 16 12 28.5t29 12.5q15 0 26 -12.5t11 -28.5t-11 -27.5t-26 -11.5q-17 0 -29 11.5t-12 27.5zM194 668 q0 17 11.5 29t27.5 12t27.5 -12t11.5 -29q0 -15 -11.5 -26.5t-27.5 -11.5t-27.5 11.5t-11.5 26.5z"/>
<glyph glyph-name="plus" d="M71 337v46h198v199h49v-199h199v-46h-199v-201h-49v201h-198z" unicode="+"/>
<glyph glyph-name="comma" horiz-adv-x="200" unicode="," d="M60 33q0 16 11 26.5t30 10.5q25 0 42 -23.5t17 -62.5q0 -49 -27.5 -83.5t-69.5 -47.5l-14 26q24 8 43.5 28.5t23.5 50.5q0 3 0.5 7.5t0.5 6.5q0 25 -11 38q-5 -10 -18 -10q-11 0 -19.5 9.5t-8.5 23.5z"/>
<glyph glyph-name="hyphen" horiz-adv-x="399" unicode="-" d="M85 247v49h229v-49h-229z"/>
<glyph glyph-name="period" horiz-adv-x="184" unicode="." d="M54 38q0 14 11.5 25t28.5 11q15 0 25.5 -11t10.5 -25q0 -16 -10.5 -28t-25.5 -12q-17 0 -28.5 12t-11.5 28z"/>
<glyph glyph-name="slash" horiz-adv-x="317" unicode="/" d="M-30 -192l336 901l41 -15l-335 -902z"/>
<glyph glyph-name="zero" horiz-adv-x="572" unicode="0" d="M120 350q0 -309 168 -309q164 0 164 309t-166 309t-166 -309zM65 350q0 164 54.5 261t166.5 97t166.5 -97t54.5 -261q0 -165 -53.5 -261.5t-165.5 -96.5t-167.5 97t-55.5 261z"/>
<glyph glyph-name="one" horiz-adv-x="372" unicode="1" d="M45 579l159 127h36v-706h-52v630l-115 -93z"/>
<glyph glyph-name="two" horiz-adv-x="529" unicode="2" d="M51 0v43q52 51 80.5 79.5t83.5 91t85.5 107.5t56 102t25.5 103q0 54 -35 92t-99 38q-51 0 -92.5 -32.5t-51.5 -94.5l-45 17q11 76 66.5 119t125.5 43q90 0 138 -51.5t48 -120.5q0 -55 -29 -121.5t-65 -118t-88.5 -110t-79 -84t-56.5 -53.5h349v-49h-417z"/>
<glyph glyph-name="three" horiz-adv-x="533" unicode="3" d="M249 -9q-70 0 -124 30t-80 91l31 36q26 -53 72.5 -79t100.5 -26q72 0 115 42.5t43 107.5q0 62 -43 100.5t-109 38.5h-60v52h54q51 0 91 41t40 101q0 63 -36 97t-98 34q-107 0 -152 -96l-31 33q21 55 70.5 85t116.5 30q86 0 135.5 -47t49.5 -129q0 -56 -29 -102t-82 -67 v-3q64 -9 101 -58t37 -112q0 -91 -60 -145.5t-153 -54.5z"/>
<glyph glyph-name="four" horiz-adv-x="538" unicode="4" d="M349 0v185h-325v35l306 480h60l-296 -463h255v213h52v-213h103v-52h-103v-185h-52z"/>
<glyph glyph-name="five" horiz-adv-x="518" unicode="5" d="M113 364l43 336h304v-52h-259l-30 -228q31 9 69 9q97 0 159 -58t62 -154q0 -102 -63 -164t-154 -62q-60 0 -114 28t-85 83l31 37q26 -46 73 -71t96 -25q69 0 115 48.5t46 123.5q0 72 -51.5 119.5t-135.5 47.5q-59 0 -106 -18z"/>
<glyph glyph-name="six" horiz-adv-x="550" unicode="6" d="M109 248q0 -86 47 -145.5t134 -59.5q64 0 109 49t45 117q0 74 -43 122.5t-121 48.5q-67 0 -112 -40.5t-59 -91.5zM54 248q0 92 30.5 175t80 140t108 95t118.5 51l22 -39q-109 -26 -194 -119t-105 -236q23 50 69.5 82t112.5 32q90 0 146.5 -60t56.5 -156 q0 -95 -62.5 -158.5t-145.5 -63.5q-112 0 -174.5 74t-62.5 183z"/>
<glyph glyph-name="seven" horiz-adv-x="475" unicode="7" d="M34 648v52h404v-32l-266 -668h-58l260 648h-340z"/>
<glyph glyph-name="eight" horiz-adv-x="591" unicode="8" d="M296 -9q-93 0 -159 52t-66 138q0 64 39 113t103 64v3q-50 15 -84 62.5t-34 103.5q0 81 58 131.5t142 50.5q85 0 143 -50.5t58 -131.5q0 -53 -32.5 -99t-88.5 -66v-3q63 -8 104 -56.5t41 -117.5q0 -89 -65.5 -141.5t-158.5 -52.5zM310 334h-26q-65 0 -111.5 -41.5 t-46.5 -102.5q0 -64 49 -105.5t120 -41.5q73 0 121.5 40.5t48.5 106.5t-44.5 105t-110.5 39zM280 386h31q50 0 90 39.5t40 95.5q0 62 -43.5 99t-103.5 37t-102 -37t-42 -99q0 -56 40 -95.5t90 -39.5z"/>
<glyph glyph-name="nine" horiz-adv-x="548" unicode="9" d="M439 449q0 87 -44 147.5t-129 60.5q-65 0 -114 -48.5t-49 -115.5q0 -70 44 -119.5t122 -49.5q68 0 112.5 37.5t57.5 87.5zM494 449q0 -191 -96 -314t-246 -144l-19 41q126 23 207 114.5t94 235.5q-21 -48 -67.5 -77.5t-110.5 -29.5q-92 0 -150 62t-58 152q0 94 66 157 t150 63q112 0 171 -73t59 -187z"/>
<glyph glyph-name="colon" horiz-adv-x="322" unicode=":" d="M123 38q0 14 11.5 25t28.5 11q15 0 25.5 -11t10.5 -25q0 -16 -10.5 -28t-25.5 -12q-17 0 -28.5 12t-11.5 28zM123 423q0 14 11.5 25t28.5 11q15 0 25.5 -11t10.5 -25q0 -16 -10.5 -28t-25.5 -12q-17 0 -28.5 12t-11.5 28z"/>
<glyph glyph-name="semicolon" horiz-adv-x="325" unicode=";" d="M123 33q0 16 11 26.5t30 10.5q25 0 42 -23.5t17 -62.5q0 -49 -27.5 -83.5t-69.5 -47.5l-14 26q24 8 43.5 28.5t23.5 50.5q0 3 0.5 7.5t0.5 6.5q0 25 -11 38q-5 -10 -18 -10q-11 0 -19.5 9.5t-8.5 23.5zM123 423q0 14 11.5 25t28.5 11q15 0 25.5 -11t10.5 -25 q0 -16 -10.5 -28t-25.5 -12q-17 0 -28.5 12t-11.5 28z"/>
<glyph glyph-name="less" d="M484 89l-420 262v22l420 260v-57l-347 -214l347 -216v-57z" unicode="&lt;"/>
<glyph glyph-name="equal" d="M71 251v46h446v-46h-446zM71 423v46h446v-46h-446z" unicode="="/>
<glyph glyph-name="greater" d="M524 351l-419 -262v57l347 216l-347 214v57l419 -260v-22z" unicode="&gt;"/>
<glyph glyph-name="question" horiz-adv-x="460" unicode="?" d="M163 38q0 14 11 25t28 11q15 0 26 -11t11 -25q0 -16 -11 -28t-26 -12q-17 0 -28 12t-11 28zM371 528q0 55 -41 92t-104 37q-95 0 -154 -81l-32 33q28 45 79 72.5t111 27.5q91 0 143.5 -49t52.5 -121q0 -51 -21 -90t-51 -62.5t-59.5 -45t-50.5 -50.5t-21 -66q0 -9 4 -33 l-47 -2q-5 27 -5 43q0 41 20 72t49 52.5t58 42.5t49 53.5t20 74.5z"/>
<glyph glyph-name="at" horiz-adv-x="1014" unicode="@" d="M508 40q42 0 82 21t62 48v268q-58 33 -128 33q-83 0 -138 -54t-55 -133q0 -85 48.5 -134t128.5 -49zM652 0v58q-27 -29 -68 -48t-84 -19q-101 0 -162.5 64t-61.5 170q0 99 71 166.5t178 67.5q103 0 179 -49v-361h22q77 0 122.5 63.5t45.5 155.5q0 149 -106 246.5 t-271 97.5q-171 0 -284 -110t-113 -277q0 -164 113.5 -275.5t283.5 -111.5q57 0 108 12l5 -48q-58 -13 -113 -13q-193 0 -319.5 125t-126.5 311q0 183 127 309.5t319 126.5q184 0 305 -110t121 -282q0 -109 -60 -189t-168 -80h-63z"/>
<glyph glyph-name="A" horiz-adv-x="697" unicode="A" d="M347 630l-146 -340h291zM21 0l305 706h45l305 -706h-59l-102 238h-336l-102 -238h-56z"/>
<glyph glyph-name="B" horiz-adv-x="617" unicode="B" d="M293 651q-43 0 -127 -3v-266h136q68 0 113.5 37t45.5 100q0 132 -168 132zM299 333h-133v-280q112 -4 130 -4q92 0 142 38t50 112q0 64 -49 99t-140 35zM111 1v698q156 4 184 4q221 0 221 -173q0 -66 -38.5 -108t-97.5 -56v-2q77 -9 120 -52.5t43 -115.5 q0 -100 -68 -149.5t-181 -49.5q-101 0 -183 4z"/>
<glyph glyph-name="C" horiz-adv-x="656" unicode="C" d="M600 109l22 -41q-36 -36 -95 -56.5t-122 -20.5q-157 0 -254 98t-97 261q0 154 94 256.5t249 102.5q133 0 212 -66l-26 -41q-72 55 -185 55q-127 0 -206.5 -86.5t-79.5 -220.5q0 -137 82.5 -222t214.5 -85q110 0 191 66z"/>
<glyph glyph-name="D" horiz-adv-x="737" unicode="D" d="M288 651q-23 0 -43 -0.5t-42.5 -1.5t-36.5 -1v-596q114 -2 118 -2q163 0 252 86.5t89 223.5q0 129 -85 210t-252 81zM111 0v700h11q24 0 80 1.5t88 1.5q102 0 179 -27.5t123 -76t68.5 -109t22.5 -130.5q0 -158 -104.5 -260t-296.5 -102q-25 0 -79 1t-83 1h-9z"/>
<glyph glyph-name="E" horiz-adv-x="575" unicode="E" d="M111 0v700h387v-52h-332v-267h302v-52h-302v-277h342v-52h-397z"/>
<glyph glyph-name="F" horiz-adv-x="542" unicode="F" d="M111 0v700h391v-52h-336v-288h306v-52h-306v-308h-55z"/>
<glyph glyph-name="G" horiz-adv-x="727" unicode="G" d="M406 287v52h257v-252q-45 -45 -119 -70.5t-143 -25.5q-157 0 -252 98t-95 261q0 154 94.5 256.5t245.5 102.5q132 0 216 -66l-25 -43q-67 57 -185 57q-128 0 -208 -86t-80 -221q0 -139 80.5 -223t210.5 -84q58 0 116.5 20t91.5 53v171h-205z"/>
<glyph glyph-name="H" horiz-adv-x="769" unicode="H" d="M603 0v331h-437v-331h-55v700h55v-317h437v317h55v-700h-55z"/>
<glyph glyph-name="I" horiz-adv-x="325" unicode="I" d="M135 0v700h55v-700h-55z"/>
<glyph glyph-name="J" horiz-adv-x="361" unicode="J" d="M250 700v-546q0 -163 -140 -163q-60 0 -96 32l20 43q31 -23 69 -23q52 0 72 31t20 88v538h55z"/>
<glyph glyph-name="K" horiz-adv-x="637" unicode="K" d="M111 0v700h55v-700h-55zM595 700l-331 -331l345 -369h-71l-339 365l329 335h67z"/>
<glyph glyph-name="L" horiz-adv-x="552" unicode="L" d="M111 0v700h55v-648h369v-52h-424z"/>
<glyph glyph-name="M" horiz-adv-x="884" unicode="M" d="M111 0v700h56l282 -384l271 384h53v-700h-55v614l-269 -378h-9l-274 375v-611h-55z"/>
<glyph glyph-name="N" horiz-adv-x="797" unicode="N" d="M686 0h-44l-479 602v-602h-52v700h44l479 -604v604h52v-700z"/>
<glyph glyph-name="O" horiz-adv-x="810" unicode="O" d="M112 350q0 -131 84.5 -219t208.5 -88q127 0 210 88t83 219q0 132 -84.5 219.5t-208.5 87.5q-125 0 -209 -87.5t-84 -219.5zM54 350q0 153 100 256t251 103q150 0 250.5 -101.5t100.5 -257.5q0 -154 -100.5 -256.5t-250.5 -102.5t-250.5 101.5t-100.5 257.5z"/>
<glyph glyph-name="P" horiz-adv-x="585" unicode="P" d="M287 650q-55 0 -121 -2v-314q65 -5 114 -5q93 0 143 44.5t50 118.5q0 72 -45.5 115t-140.5 43zM166 0h-55v700q19 0 85 1t86 1q70 0 120.5 -18t77.5 -49t39 -66.5t12 -77.5q0 -90 -63 -152t-186 -62q-63 0 -116 4v-281z"/>
<glyph glyph-name="Q" horiz-adv-x="810" unicode="Q" d="M112 350q0 -131 84.5 -219t208.5 -88q92 0 165 49l-62 75l37 33l64 -76q89 89 89 226q0 132 -84.5 219.5t-208.5 87.5q-125 0 -209 -87.5t-84 -219.5zM54 350q0 153 100 256t251 103q150 0 250.5 -101.5t100.5 -257.5q0 -163 -112 -267l70 -83h-66l-43 51 q-88 -60 -200 -60q-150 0 -250.5 101.5t-100.5 257.5z"/>
<glyph glyph-name="R" horiz-adv-x="631" unicode="R" d="M276 650q-44 0 -110 -2v-302h121q70 0 124.5 43.5t54.5 110.5q0 150 -190 150zM166 0h-55v700q22 0 91 1t77 1q245 0 245 -202q0 -73 -47 -126.5t-119 -68.5l245 -305h-68l-233 294h-136v-294z"/>
<glyph glyph-name="S" horiz-adv-x="546" unicode="S" d="M434 174q0 40 -20 69.5t-52 47.5t-70.5 33.5t-77 32t-70.5 38t-52 57t-20 82.5q0 76 55 125.5t150 49.5q58 0 108 -19t80 -52l-30 -41q-60 60 -156 60q-69 0 -109 -33.5t-40 -89.5q0 -40 20 -68.5t52 -46t70.5 -32t77 -31t70.5 -38t52 -58t20 -85.5q0 -82 -64 -133 t-159 -51q-65 0 -127.5 27.5t-87.5 73.5l33 38q30 -40 80.5 -63.5t100.5 -23.5q69 0 117.5 35t48.5 96z"/>
<glyph glyph-name="T" horiz-adv-x="593" unicode="T" d="M10 648v52h573v-52h-259v-648h-55v648h-259z"/>
<glyph glyph-name="U" horiz-adv-x="751" unicode="U" d="M650 700v-407q0 -151 -75 -226t-190 -75q-127 0 -205.5 79.5t-78.5 228.5v400h55v-390q0 -126 62 -196t167 -70q96 0 153 65.5t57 195.5v395h55z"/>
<glyph glyph-name="V" horiz-adv-x="656" unicode="V" d="M645 700l-294 -706h-39l-301 706h59l263 -622l256 622h56z"/>
<glyph glyph-name="W" horiz-adv-x="958" unicode="W" d="M944 700l-204 -700h-48l-210 608l-206 -608h-48l-214 700h62l181 -602l201 602h51l206 -603l175 603h54z"/>
<glyph glyph-name="X" horiz-adv-x="660" unicode="X" d="M623 700l-257 -344l266 -356h-66l-236 314l-237 -314h-65l267 356l-256 344h65l227 -302l226 302h66z"/>
<glyph glyph-name="Y" horiz-adv-x="584" unicode="Y" d="M570 700l-252 -394v-306h-55v306l-249 394h64l215 -342l216 342h61z"/>
<glyph glyph-name="Z" horiz-adv-x="629" unicode="Z" d="M60 648v52h519v-35l-463 -613h473v-52h-549v35l461 613h-441z"/>
<glyph glyph-name="bracketleft" horiz-adv-x="296" unicode="[" d="M60 -200v850h230v-49h-178v-752h178v-49h-230z"/>
<glyph glyph-name="backslash" horiz-adv-x="317" unicode="\" d="M11 709l336 -901l-42 -16l-335 902z"/>
<glyph glyph-name="bracketright" horiz-adv-x="296" unicode="]" d="M236 650v-850h-230v49h178v752h-178v49h230z"/>
<glyph glyph-name="asciicircum" horiz-adv-x="480" unicode="^" d="M48 450l176 258h34l174 -258h-57l-134 203l-136 -203h-57z"/>
<glyph glyph-name="underscore" horiz-adv-x="287" unicode="_" d="M0 -200v52h287v-52h-287z"/>
<glyph glyph-name="grave" horiz-adv-x="269" unicode="`" d="M176 542l-116 142l41 31l108 -150z"/>
<glyph glyph-name="a" horiz-adv-x="459" unicode="a" d="M199 43q84 0 138 71v75q-49 36 -117 36q-49 0 -85 -24t-36 -70q0 -41 28.5 -64.5t71.5 -23.5zM93 375l-14 43q66 41 143 41q90 0 128.5 -45t38.5 -135v-279h-52v69q-55 -75 -154 -75q-63 0 -101 36.5t-38 97.5q0 66 48 103t123 37t122 -34q0 38 -1.5 60t-8 47.5 t-18.5 38.5t-34.5 21.5t-55.5 8.5q-62 0 -126 -35z"/>
<glyph glyph-name="b" horiz-adv-x="550" unicode="b" d="M277 410q-44 0 -84.5 -21t-61.5 -48v-262q55 -39 129 -39q81 0 134 51t53 136t-46 134t-124 49zM79 44v656h52v-305q27 28 70 46t87 18q99 0 156.5 -63t57.5 -164q0 -110 -67.5 -175.5t-177.5 -65.5q-109 0 -178 53z"/>
<glyph glyph-name="c" horiz-adv-x="490" unicode="c" d="M429 102l26 -38q-28 -35 -73.5 -54t-96.5 -19q-105 0 -171.5 64t-66.5 170q0 99 64 166.5t160 67.5q116 0 175 -56l-25 -42q-54 49 -142 49q-73 0 -125 -53t-52 -132q0 -84 53 -134.5t134 -50.5q87 0 140 62z"/>
<glyph glyph-name="d" horiz-adv-x="553" unicode="d" d="M277 41q42 0 81.5 21t63.5 50v257q-61 41 -129 41q-80 0 -135.5 -51.5t-55.5 -133.5q0 -85 48.5 -134.5t126.5 -49.5zM422 0v64q-63 -72 -155 -72q-100 0 -160 63t-60 168q0 104 69.5 170t175.5 66q77 0 130 -39v280h52v-700h-52z"/>
<glyph glyph-name="e" horiz-adv-x="524" unicode="e" d="M270 410q-73 0 -117 -42.5t-51 -110.5h324q-1 71 -43 112t-113 41zM435 95l17 -40q-61 -64 -166 -64q-107 0 -173 64t-66 170q0 102 60.5 168t167.5 66q88 0 146 -56t58 -147q0 -24 -3 -42h-371q3 -81 53 -127.5t131 -46.5q93 0 146 55z"/>
<glyph glyph-name="f" horiz-adv-x="335" unicode="f" d="M93 0v523q0 186 155 186q73 0 117 -38l-20 -40q-36 29 -89 29q-111 0 -111 -146v-64h172v-49h-172v-401h-52z"/>
<glyph glyph-name="g" horiz-adv-x="490" unicode="g" d="M113 300q0 -48 35 -80t90 -32t90 32t35 80t-35.5 80t-89.5 32t-89.5 -32t-35.5 -80zM67 -66q0 -44 46.5 -69.5t125.5 -25.5t125.5 25.5t46.5 69.5t-46.5 70.5t-125.5 26.5q-78 0 -125 -26t-47 -71zM14 -66q0 52 36.5 86.5t101.5 48.5q-15 18 -15 43q0 26 17 45 q-44 19 -69 57t-25 86q0 69 49 114t129 45q64 0 113 -34h1l128 34v-49l-91 -23q27 -40 27 -87q0 -68 -49.5 -113.5t-128.5 -45.5q-26 0 -45 4q-9 -13 -9 -33q0 -22 13 -36q28 2 42 2q102 0 163.5 -37.5t61.5 -106.5q0 -68 -62 -105t-163 -37q-102 0 -163.5 36.5t-61.5 105.5 z"/>
<glyph glyph-name="h" horiz-adv-x="551" unicode="h" d="M79 0v700h52v-311q27 30 71.5 49.5t90.5 19.5q188 0 188 -202v-256h-52v248q0 161 -148 161q-44 0 -85.5 -20t-64.5 -49v-340h-52z"/>
<glyph glyph-name="i" horiz-adv-x="261" unicode="i" d="M95 625q0 15 11 24t26 9q13 0 23.5 -9.5t10.5 -23.5q0 -17 -10 -27t-24 -10q-16 0 -26.5 10t-10.5 27zM104 0v450h52v-450h-52z"/>
<glyph glyph-name="j" horiz-adv-x="260" unicode="j" d="M97 625q0 15 11 24t26 9q13 0 23.5 -9.5t10.5 -23.5q0 -17 -10 -27t-24 -10q-16 0 -26.5 10t-10.5 27zM159 450v-483q0 -175 -141 -175q-57 0 -92 28l16 42q31 -21 65 -21q100 0 100 130v479h52z"/>
<glyph glyph-name="k" horiz-adv-x="473" unicode="k" d="M79 0v700h52v-700h-52zM434 450l-210 -211l229 -239h-70l-223 235l206 215h68z"/>
<glyph glyph-name="l" horiz-adv-x="282" unicode="l" d="M79 116v584h52v-556q0 -52 15 -76.5t50 -24.5q33 0 63 22l13 -41q-39 -30 -95 -30q-98 0 -98 122z"/>
<glyph glyph-name="m" horiz-adv-x="805" unicode="m" d="M735 295v-295h-52v281q0 128 -114 128q-46 0 -82 -20.5t-56 -54.5q2 -8 2 -32v-302h-52v304q0 48 -29.5 76.5t-83.5 28.5q-44 0 -80 -20.5t-57 -50.5v-338h-52v450h52v-63q26 32 68.5 51.5t87.5 19.5q53 0 89.5 -22t48.5 -61q25 38 69.5 60.5t94.5 22.5q146 0 146 -163z "/>
<glyph glyph-name="n" horiz-adv-x="551" unicode="n" d="M79 0v450h52v-63q27 30 71.5 50.5t90.5 20.5q93 0 140.5 -48.5t47.5 -152.5v-257h-52v247q0 162 -148 162q-44 0 -85 -20t-65 -49v-340h-52z"/>
<glyph glyph-name="o" horiz-adv-x="567" unicode="o" d="M102 225q0 -81 51 -133t130 -52q80 0 130.5 51.5t50.5 133.5q0 81 -51 133t-130 52q-78 0 -129.5 -52t-51.5 -133zM47 225q0 102 66 168t170 66t170 -66t66 -168t-66 -168t-170 -66t-170 66t-66 168z"/>
<glyph glyph-name="p" horiz-adv-x="554" unicode="p" d="M282 410q-45 0 -86.5 -20.5t-64.5 -49.5v-259q62 -41 140 -41q81 0 130.5 53t49.5 136q0 82 -44.5 131.5t-124.5 49.5zM79 -200v650h52v-60q26 30 71.5 49.5t93.5 19.5q96 0 153 -63t57 -164q0 -104 -64 -172.5t-167 -68.5q-92 0 -144 38v-229h-52z"/>
<glyph glyph-name="q" horiz-adv-x="555" unicode="q" d="M282 40q41 0 81 20t60 46v271q-58 33 -128 33q-83 0 -138 -54t-55 -133q0 -83 49 -133t131 -50zM423 -200v249q-28 -26 -67.5 -42t-79.5 -16q-104 0 -166.5 63.5t-62.5 170.5q0 99 71 166.5t178 67.5q103 0 179 -49v-610h-52z"/>
<glyph glyph-name="r" horiz-adv-x="329" unicode="r" d="M79 0v450h52v-60q45 68 121 68q47 0 70 -17l-18 -49q-29 17 -63 17q-67 0 -110 -73v-336h-52z"/>
<glyph glyph-name="s" horiz-adv-x="418" unicode="s" d="M312 118q0 31 -25.5 50t-62 30t-73.5 24.5t-62.5 42.5t-25.5 75q0 54 40 86.5t105 32.5q93 0 141 -50l-22 -39q-46 43 -118 43q-41 0 -66 -21t-25 -51q0 -33 25.5 -53t62 -31.5t73.5 -24.5t62.5 -40.5t25.5 -71.5q0 -63 -46.5 -96t-115.5 -33q-46 0 -92 20t-62 45l29 34 q18 -23 57 -38t74 -15q42 0 71.5 21t29.5 60z"/>
<glyph glyph-name="t" horiz-adv-x="348" unicode="t" d="M69 171v404h52v-125h181v-49h-181v-222q0 -136 101 -136q40 0 72 24l17 -41q-40 -32 -101 -32q-73 0 -107 44.5t-34 132.5z"/>
<glyph glyph-name="u" horiz-adv-x="544" unicode="u" d="M464 450v-450h-52v71q-27 -34 -73.5 -57t-97.5 -23q-172 0 -172 198v261h52v-250q0 -160 139 -160q44 0 86 23.5t66 54.5v332h52z"/>
<glyph glyph-name="v" horiz-adv-x="472" unicode="v" d="M461 450l-203 -456h-36l-211 456h61l129 -283q26 -57 41 -99q23 63 40 102l124 280h55z"/>
<glyph glyph-name="w" horiz-adv-x="694" unicode="w" d="M680 450l-146 -456h-43l-124 327q-14 38 -20 57q-10 -35 -20 -60l-121 -324h-41l-151 456h56l102 -315q3 -10 9 -32t10 -34q15 48 22 66l115 315h43l117 -314q4 -12 12 -35.5t11 -32.5q3 15 11 40.5t10 32.5l95 309h53z"/>
<glyph glyph-name="x" horiz-adv-x="495" unicode="x" d="M454 450l-169 -218l179 -232h-64l-154 199l-154 -199h-61l179 230l-169 220h64l143 -186l145 186h61z"/>
<glyph glyph-name="y" horiz-adv-x="481" unicode="y" d="M467 450l-182 -450q-48 -117 -84.5 -158.5t-84.5 -41.5q-38 0 -77 23l17 40q32 -15 53 -15q34 0 61 29.5t56 98.5l10 24l-222 450h62l154 -318l32 -70q5 17 25 72l121 316h59z"/>
<glyph glyph-name="z" horiz-adv-x="481" unicode="z" d="M62 401v49h372v-34l-312 -367h307v-49h-382v34l311 367h-296z"/>
<glyph glyph-name="braceleft" horiz-adv-x="313" unicode="{" d="M110 -73v177q0 52 -26 75t-61 23h-3v46q35 0 62.5 25t27.5 85v161q0 65 28 98t94 33h61v-49h-49q-45 0 -63.5 -23t-18.5 -75v-163q0 -48 -20.5 -78.5t-54.5 -35.5q75 -9 75 -114v-166q0 -51 22 -74t66 -23h43v-49h-61q-122 0 -122 127z"/>
<glyph glyph-name="bar" horiz-adv-x="322" unicode="|" d="M135 0v700h52v-700h-52z"/>
<glyph glyph-name="braceright" horiz-adv-x="313" unicode="}" d="M203 104v-177q0 -127 -122 -127h-61v49h43q44 0 66 23t22 74v166q0 105 75 114q-34 5 -54.5 35.5t-20.5 78.5v163q0 52 -18.5 75t-63.5 23h-49v49h61q66 0 94 -33t28 -98v-161q0 -60 27.5 -85t62.5 -25v-46h-3q-35 0 -61 -23t-26 -75z"/>
<glyph glyph-name="asciitilde" d="M82 322l-25 34q64 64 128 64q41 0 117 -36.5t114 -36.5q47 0 93 46l22 -36q-59 -56 -116 -56q-41 0 -116 36.5t-112 36.5q-53 0 -105 -52z" unicode="~"/>
<glyph glyph-name="uni00A0" horiz-adv-x="235" unicode=" "/>
<glyph glyph-name="exclamdown" horiz-adv-x="310" unicode="¡" d="M195 419q0 -14 -11.5 -25t-28.5 -11q-15 0 -26 11t-11 25q0 16 11 28t26 12q17 0 28.5 -12t11.5 -28zM184 264v-507h-55v507h55z"/>
<glyph glyph-name="cent" d="M473 102l26 -38q-52 -65 -152 -72v-112h-52v113q-92 11 -148 73.5t-56 158.5q0 93 58 159.5t146 73.5v109h52v-109q90 -6 143 -55l-25 -42q-54 49 -142 49q-73 0 -125 -53t-52 -132q0 -84 53 -134.5t134 -50.5q87 0 140 62z" unicode="¢"/>
<glyph glyph-name="sterling" d="M81 283v43h79q-4 12 -22 49t-26 68t-8 71q0 79 57 136.5t151 57.5q121 0 187 -73l-30 -40q-62 61 -157 61q-67 0 -108.5 -43t-41.5 -102q0 -38 9 -68.5t25.5 -63.5t22.5 -53h172v-43h-163q3 -16 3 -35q0 -81 -52 -148h7q40 0 115 -26t112 -26q59 0 110 48l25 -40 q-60 -60 -137 -60q-39 0 -114 26t-114 26q-60 0 -115 -55l-24 41q36 36 78 54q54 68 54 152q0 17 -4 43h-91z" unicode="£"/>
<glyph glyph-name="currency" d="M120 347q0 -75 48 -128t127 -53q80 0 127.5 53t47.5 128q0 76 -48 128.5t-127 52.5t-127 -52.5t-48 -128.5zM71 347q0 80 47 143l-89 91l32 33l90 -90q60 50 144 50t144 -50l95 94l32 -32l-95 -96q48 -62 48 -143q0 -82 -48 -144l92 -91l-33 -32l-90 90q-60 -50 -145 -50 q-84 0 -144 50l-96 -95l-32 32l95 97q-47 63 -47 143z" unicode="¤"/>
<glyph glyph-name="yen" d="M71 305v43h169l-215 352h64l206 -342l207 342h61l-216 -352h170v-43h-196v-123h196v-43h-196v-139h-55v139h-195v43h195v123h-195z" unicode="¥"/>
<glyph glyph-name="brokenbar" horiz-adv-x="322" unicode="¦" d="M135 260h52v-260h-52v260zM187 440h-52v260h52v-260z"/>
<glyph glyph-name="section" horiz-adv-x="524" unicode="§" d="M123 249q0 -57 41 -96t98 -39q59 0 99 38.5t40 96.5q0 57 -40.5 96.5t-98.5 39.5t-98.5 -39t-40.5 -97zM71 249q0 66 39 114.5t104 62.5q-93 45 -93 135q0 60 42 99.5t111 39.5q82 0 129 -61l-31 -36q-14 15 -22 22.5t-29 16.5t-47 9q-42 0 -71.5 -29t-29.5 -70 q0 -78 104 -122q79 -4 127.5 -55t48.5 -126q0 -66 -39 -114.5t-105 -61.5q92 -46 92 -134q0 -60 -42 -99.5t-111 -39.5q-83 0 -129 61l31 36q14 -15 22 -22.5t29 -16.5t47 -9q42 0 71.5 29t29.5 70q0 78 -105 120q-77 6 -125 56.5t-48 124.5z"/>
<glyph glyph-name="dieresis" horiz-adv-x="393" unicode="¨" d="M268 618q0 15 9.5 24t24.5 9q12 0 21.5 -9.5t9.5 -23.5q0 -15 -9.5 -25t-21.5 -10q-14 0 -24 9.5t-10 25.5zM60 618q0 15 9.5 24t24.5 9q12 0 21.5 -9.5t9.5 -23.5q0 -15 -9.5 -25t-21.5 -10q-14 0 -24 9.5t-10 25.5z"/>
<glyph glyph-name="copyright" horiz-adv-x="1018" unicode="©" d="M661 102l26 -38q-28 -35 -73.5 -54t-96.5 -19q-105 0 -171.5 64t-66.5 170q0 99 64 166.5t160 67.5q116 0 175 -56l-25 -42q-54 49 -142 49q-73 0 -125 -53t-52 -132q0 -84 53 -134.5t134 -50.5q87 0 140 62zM123 221q0 -161 110.5 -273.5t275.5 -112.5t275.5 112.5 t110.5 273.5t-110.5 273.5t-275.5 112.5t-275.5 -112.5t-110.5 -273.5zM77 221q0 181 124 306.5t308 125.5t308 -125.5t124 -306.5t-124 -306.5t-308 -125.5t-308 125.5t-124 306.5z"/>
<glyph glyph-name="ordfeminine" horiz-adv-x="409" unicode="ª" d="M185 375q59 0 104 45v58q-43 24 -97 24q-38 0 -63.5 -17t-25.5 -47q0 -28 23.5 -45.5t58.5 -17.5zM108 590l-21 31q49 37 117 37q60 0 95.5 -32t35.5 -91v-196h-46v52q-43 -55 -124 -55q-50 0 -80.5 28.5t-30.5 69.5q0 48 33 75t91 27q66 0 111 -27v15q0 94 -93 94 q-48 0 -88 -28z"/>
<glyph glyph-name="guillemotleft" horiz-adv-x="506" unicode="«" d="M231 37l-180 211v4l182 209l34 -30l-156 -181l154 -181zM405 37l-180 211v4l182 209l34 -30l-156 -181l154 -181z"/>
<glyph glyph-name="logicalnot" d="M65 337v46h458v-177h-46v131h-412z" unicode="¬"/>
<glyph glyph-name="uni00AD" horiz-adv-x="399" unicode="­" d="M85 247v49h229v-49h-229z"/>
<glyph glyph-name="registered" horiz-adv-x="582" unicode="®" d="M282 612h-42v-113h47q26 0 45.5 16.5t19.5 41.5q0 55 -70 55zM240 360h-37v280h83q103 0 103 -83q0 -28 -18 -50t-48 -29l87 -118h-45l-80 111h-45v-111zM97 496q0 -80 57 -137t137 -57t137 57t57 137t-57 137t-137 57t-137 -57t-57 -137zM54 497q0 98 69.5 167t168.5 69 q98 0 167 -69.5t69 -166.5q0 -99 -69 -168.5t-167 -69.5q-100 0 -169 69t-69 169z"/>
<glyph glyph-name="macron" horiz-adv-x="372" unicode="¯" d="M60 604v43h252v-43h-252z"/>
<glyph glyph-name="degree" horiz-adv-x="398" unicode="°" d="M100 570q0 -40 29 -69.5t70 -29.5t70 29.5t29 69.5t-29 69.5t-70 29.5t-70 -29.5t-29 -69.5zM54 569q0 61 42 103.5t102 42.5q61 0 103.5 -41.5t42.5 -102.5t-42.5 -103.5t-103.5 -42.5q-60 0 -102 42t-42 102z"/>
<glyph glyph-name="plusminus" d="M71 173v46h446v-46h-446zM71 416v46h198v199h49v-199h199v-46h-199v-139h-49v139h-198z" unicode="±"/>
<glyph glyph-name="twosuperior" horiz-adv-x="339" unicode="²" d="M39 350v34l31 22q32 22 40 28.5t35.5 27.5t38 33.5t27 31.5t22.5 35.5t6 33.5q0 29 -19.5 48.5t-54.5 19.5q-29 0 -53.5 -17t-28.5 -46l-40 13q7 42 42.5 66t82.5 24q59 0 89.5 -29.5t30.5 -74.5q0 -99 -187 -210h206v-40h-268z"/>
<glyph glyph-name="threesuperior" horiz-adv-x="342" unicode="³" d="M164 345q-100 0 -133 67l28 24q13 -25 40.5 -38.5t59.5 -13.5q41 0 65.5 19t24.5 48q0 26 -22.5 43t-59.5 17h-36v34h32q29 0 50 18.5t21 45.5t-20.5 42t-55.5 15q-66 0 -92 -48l-24 25q31 62 125 62q54 0 85 -23.5t31 -64.5q0 -29 -19 -52t-52 -33v-1q40 -4 63 -28 t23 -56q0 -46 -38.5 -74t-95.5 -28z"/>
<glyph glyph-name="acute" horiz-adv-x="268" unicode="´" d="M208 685l-116 -143l-32 23l108 151z"/>
<glyph glyph-name="paragraph" horiz-adv-x="437" unicode="¶" d="M51 481q0 102 56 160.5t152 58.5h144v-49h-94v-680q0 -87 -34.5 -133t-112.5 -46q-62 0 -101 35l22 38q32 -24 75 -24q57 0 78 34.5t21 96.5v291q-89 1 -147.5 59.5t-58.5 158.5z"/>
<glyph glyph-name="periodcentered" horiz-adv-x="235" unicode="·" d="M79 297q0 14 11.5 25t28.5 11q15 0 25.5 -11t10.5 -25q0 -16 -10.5 -28t-25.5 -12q-17 0 -28.5 12t-11.5 28z"/>
<glyph glyph-name="cedilla" horiz-adv-x="330" unicode="¸" d="M60 -174l16 27q36 -22 72 -22q31 0 50.5 12.5t19.5 33.5q0 47 -71 47h-6v76h30v-50q99 -3 99 -76q0 -34 -30.5 -55.5t-84.5 -21.5q-47 0 -95 29z"/>
<glyph glyph-name="onesuperior" horiz-adv-x="239" unicode="¹" d="M27 635l99 67h32v-352h-46v297l-66 -44z"/>
<glyph glyph-name="ordmasculine" horiz-adv-x="458" unicode="º" d="M106 496q0 -53 36.5 -86.5t86.5 -33.5q51 0 87 33.5t36 86.5q0 52 -36.5 85.5t-86.5 33.5t-86.5 -33.5t-36.5 -85.5zM57 496q0 71 49 116.5t123 45.5t123 -45.5t49 -116.5t-49 -117t-123 -46t-123 46t-49 117z"/>
<glyph glyph-name="guillemotright" horiz-adv-x="506" unicode="»" d="M281 248l-180 -211l-35 32l155 181l-156 181l34 30l182 -209v-4zM455 248l-180 -211l-35 32l155 181l-156 181l34 30l182 -209v-4z"/>
<glyph glyph-name="onequarter" horiz-adv-x="657" unicode="¼" d="M532 0v87h-195v29l179 234h45l-175 -226h146v101h43v-101h62v-37h-62v-87h-43zM54 13l521 696l31 -22l-521 -696zM41 635l99 67h32v-352h-46v297l-66 -44z"/>
<glyph glyph-name="onehalf" horiz-adv-x="673" unicode="½" d="M365 0v34l31 22q32 22 40 28.5t35.5 27.5t38 33.5t27 31.5t22.5 35.5t6 33.5q0 29 -19.5 48.5t-54.5 19.5q-29 0 -53.5 -17t-28.5 -46l-40 13q7 42 42.5 66t82.5 24q59 0 89.5 -29.5t30.5 -74.5q0 -99 -187 -210h206v-40h-268zM26 13l521 696l31 -22l-521 -696zM41 635 l99 67h32v-352h-46v297l-66 -44z"/>
<glyph glyph-name="threequarters" horiz-adv-x="699" unicode="¾" d="M167 345q-99 0 -133 67l28 24q13 -25 40.5 -38.5t59.5 -13.5q41 0 65.5 19t24.5 48q0 26 -22.5 43t-59.5 17h-36v34h32q29 0 50 18.5t21 45.5t-20.5 42t-55.5 15q-66 0 -92 -48l-24 25q31 62 125 62q54 0 85 -23.5t31 -64.5q0 -29 -19 -52t-52 -33v-1q40 -4 63 -28 t23 -56q0 -46 -38.5 -74t-95.5 -28zM574 0v87h-195v29l179 234h45l-175 -226h146v101h43v-101h62v-37h-62v-87h-43zM106 13l521 696l31 -22l-521 -696z"/>
<glyph glyph-name="questiondown" horiz-adv-x="460" unicode="¿" d="M297 419q0 -14 -11 -25t-28 -11q-15 0 -26 11t-11 25q0 16 11 28t26 12q17 0 28 -12t11 -28zM89 -71q0 -55 41 -92t104 -37q95 0 154 81l32 -33q-28 -45 -79 -72.5t-111 -27.5q-91 0 -143.5 49t-52.5 121q0 51 21 90t51 62.5t59.5 45t50.5 50.5t21 66q0 9 -4 33l47 2 q5 -27 5 -43q0 -41 -20 -72t-49 -52.5t-58 -42.5t-49 -53.5t-20 -74.5z"/>
<glyph glyph-name="Agrave" horiz-adv-x="697" unicode="À" d="M383 738l-183 86l20 44l178 -99zM347 630l-146 -340h291zM21 0l305 706h45l305 -706h-59l-102 238h-336l-102 -238h-56z"/>
<glyph glyph-name="Aacute" horiz-adv-x="697" unicode="Á" d="M499 824l-182 -86l-16 31l179 99zM347 630l-146 -340h291zM21 0l305 706h45l305 -706h-59l-102 238h-336l-102 -238h-56z"/>
<glyph glyph-name="Acircumflex" horiz-adv-x="697" unicode="Â" d="M177 767l168 98h4l170 -98l-23 -30l-149 81l-150 -81zM347 630l-146 -340h291zM21 0l305 706h45l305 -706h-59l-102 238h-336l-102 -238h-56z"/>
<glyph glyph-name="Atilde" horiz-adv-x="697" unicode="Ã" d="M198 767l-18 33q41 40 90 40q31 0 80.5 -22t75.5 -22q43 0 74 33l16 -33q-39 -46 -93 -46q-27 0 -78.5 22t-80.5 22q-33 0 -66 -27zM347 630l-146 -340h291zM21 0l305 706h45l305 -706h-59l-102 238h-336l-102 -238h-56z"/>
<glyph glyph-name="Adieresis" horiz-adv-x="697" unicode="Ä" d="M428 804q0 15 11.5 23.5t27.5 8.5q14 0 24.5 -9t10.5 -23q0 -16 -10.5 -25t-24.5 -9q-17 0 -28 9t-11 25zM195 804q0 15 11 23.5t27 8.5q14 0 25 -9t11 -23q0 -16 -11 -25t-25 -9q-16 0 -27 9t-11 25zM347 630l-146 -340h291zM21 0l305 706h45l305 -706h-59l-102 238 h-336l-102 -238h-56z"/>
<glyph glyph-name="Aring" horiz-adv-x="697" unicode="Å" d="M276 785q0 -29 20 -44.5t52 -15.5t52 15.5t20 44.5t-20 43t-52 14q-72 0 -72 -57zM347 630l-146 -340h291zM236 785q0 44 31 66t80 22q50 0 81.5 -22t31.5 -66q0 -37 -23.5 -60t-61.5 -29l301 -696h-59l-102 238h-336l-102 -238h-56l300 696q-38 5 -61.5 28t-23.5 61z "/>
<glyph glyph-name="AE" horiz-adv-x="960" unicode="Æ" d="M496 617l-227 -321h227v321zM883 700v-52h-332v-267h302v-52h-302v-277h342v-52h-397v244h-264l-172 -244h-65l501 700h387z"/>
<glyph glyph-name="Ccedilla" horiz-adv-x="656" unicode="Ç" d="M293 -173l17 28q42 -24 74 -24q31 0 50.5 12.5t19.5 33.5q0 47 -71 47h-6v68q-146 9 -234.5 106t-88.5 252q0 154 94 256.5t249 102.5q133 0 212 -66l-26 -41q-72 55 -185 55q-127 0 -206.5 -86.5t-79.5 -220.5q0 -137 82.5 -222t214.5 -85q110 0 191 66l22 -41 q-35 -35 -93.5 -55.5t-121.5 -21.5v-41q102 -3 102 -76q0 -34 -31 -55.5t-83 -21.5t-102 30z"/>
<glyph glyph-name="Egrave" horiz-adv-x="575" unicode="È" d="M358 738l-183 86l20 44l178 -99zM111 0v700h387v-52h-332v-267h302v-52h-302v-277h342v-52h-397z"/>
<glyph glyph-name="Eacute" horiz-adv-x="575" unicode="É" d="M435 824l-182 -86l-16 31l179 99zM111 0v700h387v-52h-332v-267h302v-52h-302v-277h342v-52h-397z"/>
<glyph glyph-name="Ecircumflex" horiz-adv-x="575" unicode="Ê" d="M135 767l168 98h4l170 -98l-23 -30l-149 81l-150 -81zM111 0v700h387v-52h-332v-267h302v-52h-302v-277h342v-52h-397z"/>
<glyph glyph-name="Edieresis" horiz-adv-x="575" unicode="Ë" d="M387 804q0 15 11.5 23.5t27.5 8.5q14 0 24.5 -9t10.5 -23q0 -16 -10.5 -25t-24.5 -9q-17 0 -28 9t-11 25zM154 804q0 15 11 23.5t27 8.5q14 0 25 -9t11 -23q0 -16 -11 -25t-25 -9q-16 0 -27 9t-11 25zM111 0v700h387v-52h-332v-267h302v-52h-302v-277h342v-52h-397z"/>
<glyph glyph-name="Igrave" horiz-adv-x="325" unicode="Ì" d="M186 738l-183 86l20 44l178 -99zM135 0v700h55v-700h-55z"/>
<glyph glyph-name="Iacute" horiz-adv-x="325" unicode="Í" d="M322 824l-182 -86l-16 31l179 99zM135 0v700h55v-700h-55z"/>
<glyph glyph-name="Icircumflex" horiz-adv-x="325" unicode="Î" d="M-8 767l168 98h4l170 -98l-23 -30l-149 81l-150 -81zM135 0v700h55v-700h-55z"/>
<glyph glyph-name="Idieresis" horiz-adv-x="325" unicode="Ï" d="M242 804q0 15 11.5 23.5t27.5 8.5q14 0 24.5 -9t10.5 -23q0 -16 -10.5 -25t-24.5 -9q-17 0 -28 9t-11 25zM9 804q0 15 11 23.5t27 8.5q14 0 25 -9t11 -23q0 -16 -11 -25t-25 -9q-16 0 -27 9t-11 25zM135 0v700h55v-700h-55z"/>
<glyph glyph-name="Eth" horiz-adv-x="758" unicode="Ð" d="M309 651q-23 0 -43 -0.5t-42.5 -1.5t-36.5 -1v-267h198v-49h-198v-280q114 -2 118 -2q163 0 252 86.5t89 223.5q0 129 -85 210t-252 81zM10 332v49h122v319h11q24 0 80 1.5t88 1.5q102 0 179 -27.5t123 -76t68.5 -109t22.5 -130.5q0 -158 -104.5 -260t-296.5 -102 q-25 0 -79 1t-83 1h-9v332h-122z"/>
<glyph glyph-name="Ntilde" horiz-adv-x="797" unicode="Ñ" d="M254 767l-18 33q41 40 90 40q31 0 80.5 -22t75.5 -22q43 0 74 33l16 -33q-39 -46 -93 -46q-27 0 -78.5 22t-80.5 22q-33 0 -66 -27zM686 0h-44l-479 602v-602h-52v700h44l479 -604v604h52v-700z"/>
<glyph glyph-name="Ograve" horiz-adv-x="810" unicode="Ò" d="M478 738l-183 86l20 44l178 -99zM112 350q0 -131 84.5 -219t208.5 -88q127 0 210 88t83 219q0 132 -84.5 219.5t-208.5 87.5q-125 0 -209 -87.5t-84 -219.5zM54 350q0 153 100 256t251 103q150 0 250.5 -101.5t100.5 -257.5q0 -154 -100.5 -256.5t-250.5 -102.5 t-250.5 101.5t-100.5 257.5z"/>
<glyph glyph-name="Oacute" horiz-adv-x="810" unicode="Ó" d="M541 824l-182 -86l-16 31l179 99zM112 350q0 -131 84.5 -219t208.5 -88q127 0 210 88t83 219q0 132 -84.5 219.5t-208.5 87.5q-125 0 -209 -87.5t-84 -219.5zM54 350q0 153 100 256t251 103q150 0 250.5 -101.5t100.5 -257.5q0 -154 -100.5 -256.5t-250.5 -102.5 t-250.5 101.5t-100.5 257.5z"/>
<glyph glyph-name="Ocircumflex" horiz-adv-x="810" unicode="Ô" d="M238 767l168 98h4l170 -98l-23 -30l-149 81l-150 -81zM112 350q0 -131 84.5 -219t208.5 -88q127 0 210 88t83 219q0 132 -84.5 219.5t-208.5 87.5q-125 0 -209 -87.5t-84 -219.5zM54 350q0 153 100 256t251 103q150 0 250.5 -101.5t100.5 -257.5q0 -154 -100.5 -256.5 t-250.5 -102.5t-250.5 101.5t-100.5 257.5z"/>
<glyph glyph-name="Otilde" horiz-adv-x="810" unicode="Õ" d="M256 767l-18 33q41 40 90 40q31 0 80.5 -22t75.5 -22q43 0 74 33l16 -33q-39 -46 -93 -46q-27 0 -78.5 22t-80.5 22q-33 0 -66 -27zM112 350q0 -131 84.5 -219t208.5 -88q127 0 210 88t83 219q0 132 -84.5 219.5t-208.5 87.5q-125 0 -209 -87.5t-84 -219.5zM54 350 q0 153 100 256t251 103q150 0 250.5 -101.5t100.5 -257.5q0 -154 -100.5 -256.5t-250.5 -102.5t-250.5 101.5t-100.5 257.5z"/>
<glyph glyph-name="Odieresis" horiz-adv-x="810" unicode="Ö" d="M485 804q0 15 11.5 23.5t27.5 8.5q14 0 24.5 -9t10.5 -23q0 -16 -10.5 -25t-24.5 -9q-17 0 -28 9t-11 25zM252 804q0 15 11 23.5t27 8.5q14 0 25 -9t11 -23q0 -16 -11 -25t-25 -9q-16 0 -27 9t-11 25zM112 350q0 -131 84.5 -219t208.5 -88q127 0 210 88t83 219 q0 132 -84.5 219.5t-208.5 87.5q-125 0 -209 -87.5t-84 -219.5zM54 350q0 153 100 256t251 103q150 0 250.5 -101.5t100.5 -257.5q0 -154 -100.5 -256.5t-250.5 -102.5t-250.5 101.5t-100.5 257.5z"/>
<glyph glyph-name="multiply" d="M121 501l33 33l140 -142l141 142l32 -33l-140 -141l142 -142l-32 -32l-143 141l-142 -141l-32 32l142 142z" unicode="×"/>
<glyph glyph-name="Oslash" horiz-adv-x="810" unicode="Ø" d="M112 350q0 -109 60 -190l431 420q-82 77 -198 77q-125 0 -209 -87.5t-84 -219.5zM698 350q0 113 -66 198l-431 -422q83 -83 204 -83q127 0 210 88t83 219zM54 350q0 153 100 256t251 103q140 0 238 -90l48 46l30 -30l-48 -47q83 -99 83 -238q0 -154 -100.5 -256.5 t-250.5 -102.5q-145 0 -245 95l-47 -46l-31 32l49 47q-77 96 -77 231z"/>
<glyph glyph-name="Ugrave" horiz-adv-x="751" unicode="Ù" d="M435 738l-183 86l20 44l178 -99zM650 700v-407q0 -151 -75 -226t-190 -75q-127 0 -205.5 79.5t-78.5 228.5v400h55v-390q0 -126 62 -196t167 -70q96 0 153 65.5t57 195.5v395h55z"/>
<glyph glyph-name="Uacute" horiz-adv-x="751" unicode="Ú" d="M508 824l-182 -86l-16 31l179 99zM650 700v-407q0 -151 -75 -226t-190 -75q-127 0 -205.5 79.5t-78.5 228.5v400h55v-390q0 -126 62 -196t167 -70q96 0 153 65.5t57 195.5v395h55z"/>
<glyph glyph-name="Ucircumflex" horiz-adv-x="751" unicode="Û" d="M204 767l168 98h4l170 -98l-23 -30l-149 81l-150 -81zM650 700v-407q0 -151 -75 -226t-190 -75q-127 0 -205.5 79.5t-78.5 228.5v400h55v-390q0 -126 62 -196t167 -70q96 0 153 65.5t57 195.5v395h55z"/>
<glyph glyph-name="Udieresis" horiz-adv-x="751" unicode="Ü" d="M452 804q0 15 11.5 23.5t27.5 8.5q14 0 24.5 -9t10.5 -23q0 -16 -10.5 -25t-24.5 -9q-17 0 -28 9t-11 25zM219 804q0 15 11 23.5t27 8.5q14 0 25 -9t11 -23q0 -16 -11 -25t-25 -9q-16 0 -27 9t-11 25zM650 700v-407q0 -151 -75 -226t-190 -75q-127 0 -205.5 79.5 t-78.5 228.5v400h55v-390q0 -126 62 -196t167 -70q96 0 153 65.5t57 195.5v395h55z"/>
<glyph glyph-name="Yacute" horiz-adv-x="584" unicode="Ý" d="M430 824l-182 -86l-16 31l179 99zM570 700l-252 -394v-306h-55v306l-249 394h64l215 -342l216 342h61z"/>
<glyph glyph-name="Thorn" horiz-adv-x="585" unicode="Þ" d="M283 543q-77 0 -117 -3v-313q65 -5 114 -5q93 0 143 44.5t50 118.5q0 72 -47 115t-143 43zM166 0h-55v700h55v-107q17 0 60.5 1t55.5 1q70 0 120.5 -18t77.5 -49t39 -66.5t12 -77.5q0 -90 -63 -152t-186 -62q-63 0 -116 4v-174z"/>
<glyph glyph-name="germandbls" horiz-adv-x="542" unicode="ß" d="M439 149q0 34 -20.5 61t-49.5 46t-58.5 37.5t-50 45t-20.5 59.5q0 25 10.5 46.5t26 36.5t31 29.5t26 33t10.5 39.5q0 34 -27.5 55.5t-64.5 21.5q-59 0 -87 -37.5t-28 -118.5v-507h-52v517q0 195 173 195q60 0 100.5 -33.5t40.5 -83.5q0 -33 -16.5 -60t-35.5 -42 t-35.5 -37t-16.5 -46q0 -31 20.5 -54.5t49.5 -41t58.5 -36.5t50 -51.5t20.5 -75.5q0 -68 -43 -112.5t-107 -44.5q-48 0 -84 20.5t-57 49.5l20 39q46 -60 109 -60q43 0 75 30t32 79z"/>
<glyph glyph-name="agrave" horiz-adv-x="459" unicode="à" d="M254 542l-116 142l41 31l108 -150zM199 43q84 0 138 71v75q-49 36 -117 36q-49 0 -85 -24t-36 -70q0 -41 28.5 -64.5t71.5 -23.5zM93 375l-14 43q66 41 143 41q90 0 128.5 -45t38.5 -135v-279h-52v69q-55 -75 -154 -75q-63 0 -101 36.5t-38 97.5q0 66 48 103t123 37 t122 -34q0 38 -1.5 60t-8 47.5t-18.5 38.5t-34.5 21.5t-55.5 8.5q-62 0 -126 -35z"/>
<glyph glyph-name="aacute" horiz-adv-x="459" unicode="á" d="M324 685l-116 -143l-32 23l108 151zM199 43q84 0 138 71v75q-49 36 -117 36q-49 0 -85 -24t-36 -70q0 -41 28.5 -64.5t71.5 -23.5zM93 375l-14 43q66 41 143 41q90 0 128.5 -45t38.5 -135v-279h-52v69q-55 -75 -154 -75q-63 0 -101 36.5t-38 97.5q0 66 48 103t123 37 t122 -34q0 38 -1.5 60t-8 47.5t-18.5 38.5t-34.5 21.5t-55.5 8.5q-62 0 -126 -35z"/>
<glyph glyph-name="acircumflex" horiz-adv-x="459" unicode="â" d="M232 707l128 -131l-25 -32l-105 105l-107 -104l-26 31l131 131h4zM199 43q84 0 138 71v75q-49 36 -117 36q-49 0 -85 -24t-36 -70q0 -41 28.5 -64.5t71.5 -23.5zM93 375l-14 43q66 41 143 41q90 0 128.5 -45t38.5 -135v-279h-52v69q-55 -75 -154 -75q-63 0 -101 36.5 t-38 97.5q0 66 48 103t123 37t122 -34q0 38 -1.5 60t-8 47.5t-18.5 38.5t-34.5 21.5t-55.5 8.5q-62 0 -126 -35z"/>
<glyph glyph-name="atilde" horiz-adv-x="459" unicode="ã" d="M98 573l-23 25q52 52 101 52q24 0 57.5 -23t53.5 -23q30 0 74 38l19 -27q-53 -54 -98 -54q-22 0 -55.5 23t-56.5 23q-29 0 -72 -34zM199 43q84 0 138 71v75q-49 36 -117 36q-49 0 -85 -24t-36 -70q0 -41 28.5 -64.5t71.5 -23.5zM93 375l-14 43q66 41 143 41 q90 0 128.5 -45t38.5 -135v-279h-52v69q-55 -75 -154 -75q-63 0 -101 36.5t-38 97.5q0 66 48 103t123 37t122 -34q0 38 -1.5 60t-8 47.5t-18.5 38.5t-34.5 21.5t-55.5 8.5q-62 0 -126 -35z"/>
<glyph glyph-name="adieresis" horiz-adv-x="459" unicode="ä" d="M297 618q0 15 9.5 24t24.5 9q12 0 21.5 -9.5t9.5 -23.5q0 -15 -9.5 -25t-21.5 -10q-15 0 -24.5 9.5t-9.5 25.5zM89 618q0 15 9.5 24t24.5 9q12 0 21.5 -9.5t9.5 -23.5q0 -15 -9.5 -25t-21.5 -10q-15 0 -24.5 9.5t-9.5 25.5zM199 43q84 0 138 71v75q-49 36 -117 36 q-49 0 -85 -24t-36 -70q0 -41 28.5 -64.5t71.5 -23.5zM93 375l-14 43q66 41 143 41q90 0 128.5 -45t38.5 -135v-279h-52v69q-55 -75 -154 -75q-63 0 -101 36.5t-38 97.5q0 66 48 103t123 37t122 -34q0 38 -1.5 60t-8 47.5t-18.5 38.5t-34.5 21.5t-55.5 8.5q-62 0 -126 -35z "/>
<glyph glyph-name="aring" horiz-adv-x="459" unicode="å" d="M155 614q0 -30 20.5 -51t50.5 -21t50.5 21t20.5 51t-20.5 51.5t-50.5 21.5t-50.5 -21.5t-20.5 -51.5zM120 614q0 43 30.5 73.5t74.5 30.5q45 0 76 -30.5t31 -73.5t-31 -73t-76 -30q-44 0 -74.5 30t-30.5 73zM199 43q84 0 138 71v75q-49 36 -117 36q-49 0 -85 -24t-36 -70 q0 -41 28.5 -64.5t71.5 -23.5zM93 375l-14 43q66 41 143 41q90 0 128.5 -45t38.5 -135v-279h-52v69q-55 -75 -154 -75q-63 0 -101 36.5t-38 97.5q0 66 48 103t123 37t122 -34q0 38 -1.5 60t-8 47.5t-18.5 38.5t-34.5 21.5t-55.5 8.5q-62 0 -126 -35z"/>
<glyph glyph-name="ae" horiz-adv-x="789" unicode="æ" d="M199 43q84 0 138 71v98q-65 13 -117 13q-49 0 -85 -24t-36 -70q0 -41 28.5 -64.5t71.5 -23.5zM389 279v-22h302q-1 71 -43 112t-113 41q-103 0 -149 -83q3 -23 3 -48zM222 459q109 0 146 -71q61 71 172 71q88 0 146 -56t58 -147q0 -24 -3 -42h-352v-89q49 -85 165 -85 q93 0 146 55l17 -40q-61 -64 -166 -64q-121 0 -188 80q-74 -77 -171 -77q-69 0 -108.5 36t-39.5 98q0 66 48 103t123 37q68 0 122 -13q1 9 1 25q0 66 -27.5 98t-91.5 32q-62 0 -126 -35l-14 43q66 41 143 41z"/>
<glyph glyph-name="ccedilla" horiz-adv-x="490" unicode="ç" d="M175 -174l16 27q36 -22 72 -22q31 0 50.5 12.5t19.5 33.5q0 47 -71 47h-6v69q-94 8 -151.5 71t-57.5 161q0 99 64 166.5t160 67.5q116 0 175 -56l-25 -42q-54 49 -142 49q-73 0 -125 -53t-52 -132q0 -84 53 -134.5t134 -50.5q87 0 140 62l26 -38q-28 -35 -73.5 -54 t-95.5 -19v-41q99 -3 99 -76q0 -34 -30.5 -55.5t-84.5 -21.5q-47 0 -95 29z"/>
<glyph glyph-name="egrave" horiz-adv-x="524" unicode="è" d="M286 542l-116 142l41 31l108 -150zM270 410q-73 0 -117 -42.5t-51 -110.5h324q-1 71 -43 112t-113 41zM435 95l17 -40q-61 -64 -166 -64q-107 0 -173 64t-66 170q0 102 60.5 168t167.5 66q88 0 146 -56t58 -147q0 -24 -3 -42h-371q3 -81 53 -127.5t131 -46.5q93 0 146 55 z"/>
<glyph glyph-name="eacute" horiz-adv-x="524" unicode="é" d="M384 685l-116 -143l-32 23l108 151zM270 410q-73 0 -117 -42.5t-51 -110.5h324q-1 71 -43 112t-113 41zM435 95l17 -40q-61 -64 -166 -64q-107 0 -173 64t-66 170q0 102 60.5 168t167.5 66q88 0 146 -56t58 -147q0 -24 -3 -42h-371q3 -81 53 -127.5t131 -46.5 q93 0 146 55z"/>
<glyph glyph-name="ecircumflex" horiz-adv-x="524" unicode="ê" d="M275 707l128 -131l-25 -32l-105 105l-107 -104l-26 31l131 131h4zM270 410q-73 0 -117 -42.5t-51 -110.5h324q-1 71 -43 112t-113 41zM435 95l17 -40q-61 -64 -166 -64q-107 0 -173 64t-66 170q0 102 60.5 168t167.5 66q88 0 146 -56t58 -147q0 -24 -3 -42h-371 q3 -81 53 -127.5t131 -46.5q93 0 146 55z"/>
<glyph glyph-name="edieresis" horiz-adv-x="524" unicode="ë" d="M337 618q0 15 9.5 24t24.5 9q12 0 21.5 -9.5t9.5 -23.5q0 -15 -9.5 -25t-21.5 -10q-15 0 -24.5 9.5t-9.5 25.5zM129 618q0 15 9.5 24t24.5 9q12 0 21.5 -9.5t9.5 -23.5q0 -15 -9.5 -25t-21.5 -10q-15 0 -24.5 9.5t-9.5 25.5zM270 410q-73 0 -117 -42.5t-51 -110.5h324 q-1 71 -43 112t-113 41zM435 95l17 -40q-61 -64 -166 -64q-107 0 -173 64t-66 170q0 102 60.5 168t167.5 66q88 0 146 -56t58 -147q0 -24 -3 -42h-371q3 -81 53 -127.5t131 -46.5q93 0 146 55z"/>
<glyph glyph-name="igrave" horiz-adv-x="261" unicode="ì" d="M130 542l-116 142l41 31l108 -150zM104 0v450h52v-450h-52z"/>
<glyph glyph-name="iacute" horiz-adv-x="261" unicode="í" d="M237 685l-116 -143l-32 23l108 151zM104 0v450h52v-450h-52z"/>
<glyph glyph-name="icircumflex" horiz-adv-x="261" unicode="î" d="M134 707l128 -131l-25 -32l-105 105l-107 -104l-26 31l131 131h4zM104 0v450h52v-450h-52z"/>
<glyph glyph-name="idieresis" horiz-adv-x="261" unicode="ï" d="M202 618q0 15 9.5 24t24.5 9q12 0 21.5 -9.5t9.5 -23.5q0 -15 -9.5 -25t-21.5 -10q-14 0 -24 9.5t-10 25.5zM-6 618q0 15 9.5 24t24.5 9q12 0 21.5 -9.5t9.5 -23.5q0 -15 -9.5 -25t-21.5 -10q-14 0 -24 9.5t-10 25.5zM104 0v450h52v-450h-52z"/>
<glyph glyph-name="eth" horiz-adv-x="567" unicode="ð" d="M102 225q0 -81 51 -133t130 -52q81 0 131 58t50 156v8q-10 59 -59 103.5t-122 44.5q-78 0 -129.5 -52t-51.5 -133zM203 528l-16 46l106 50q-51 44 -114 73l58 12q54 -25 100 -64l105 51l16 -46l-83 -40q69 -71 106.5 -164t37.5 -188q0 -123 -65 -195t-171 -72 q-104 0 -170 66t-66 168t66 168t170 66q55 0 99.5 -28t68.5 -77q-25 132 -121 235z"/>
<glyph glyph-name="ntilde" horiz-adv-x="551" unicode="ñ" d="M144 573l-23 25q52 52 101 52q24 0 57.5 -23t53.5 -23q30 0 74 38l19 -27q-53 -54 -98 -54q-22 0 -55.5 23t-56.5 23q-29 0 -72 -34zM79 0v450h52v-63q27 30 71.5 50.5t90.5 20.5q93 0 140.5 -48.5t47.5 -152.5v-257h-52v247q0 162 -148 162q-44 0 -85 -20t-65 -49v-340 h-52z"/>
<glyph glyph-name="ograve" horiz-adv-x="567" unicode="ò" d="M297 542l-116 142l41 31l108 -150zM102 225q0 -81 51 -133t130 -52q80 0 130.5 51.5t50.5 133.5q0 81 -51 133t-130 52q-78 0 -129.5 -52t-51.5 -133zM47 225q0 102 66 168t170 66t170 -66t66 -168t-66 -168t-170 -66t-170 66t-66 168z"/>
<glyph glyph-name="oacute" horiz-adv-x="567" unicode="ó" d="M386 685l-116 -143l-32 23l108 151zM102 225q0 -81 51 -133t130 -52q80 0 130.5 51.5t50.5 133.5q0 81 -51 133t-130 52q-78 0 -129.5 -52t-51.5 -133zM47 225q0 102 66 168t170 66t170 -66t66 -168t-66 -168t-170 -66t-170 66t-66 168z"/>
<glyph glyph-name="ocircumflex" horiz-adv-x="567" unicode="ô" d="M286 707l128 -131l-25 -32l-105 105l-107 -104l-26 31l131 131h4zM102 225q0 -81 51 -133t130 -52q80 0 130.5 51.5t50.5 133.5q0 81 -51 133t-130 52q-78 0 -129.5 -52t-51.5 -133zM47 225q0 102 66 168t170 66t170 -66t66 -168t-66 -168t-170 -66t-170 66t-66 168z"/>
<glyph glyph-name="otilde" horiz-adv-x="567" unicode="õ" d="M152 573l-23 25q52 52 101 52q24 0 57.5 -23t53.5 -23q30 0 74 38l19 -27q-53 -54 -98 -54q-22 0 -55.5 23t-56.5 23q-29 0 -72 -34zM102 225q0 -81 51 -133t130 -52q80 0 130.5 51.5t50.5 133.5q0 81 -51 133t-130 52q-78 0 -129.5 -52t-51.5 -133zM47 225q0 102 66 168 t170 66t170 -66t66 -168t-66 -168t-170 -66t-170 66t-66 168z"/>
<glyph glyph-name="odieresis" horiz-adv-x="567" unicode="ö" d="M358 618q0 15 9.5 24t24.5 9q12 0 21.5 -9.5t9.5 -23.5q0 -15 -9.5 -25t-21.5 -10q-14 0 -24 9.5t-10 25.5zM150 618q0 15 9.5 24t24.5 9q12 0 21.5 -9.5t9.5 -23.5q0 -15 -9.5 -25t-21.5 -10q-14 0 -24 9.5t-10 25.5zM102 225q0 -81 51 -133t130 -52q80 0 130.5 51.5 t50.5 133.5q0 81 -51 133t-130 52q-78 0 -129.5 -52t-51.5 -133zM47 225q0 102 66 168t170 66t170 -66t66 -168t-66 -168t-170 -66t-170 66t-66 168z"/>
<glyph glyph-name="divide" d="M71 337v46h446v-46h-446zM260 151q0 13 9.5 23t25.5 10q14 0 24 -10t10 -23q0 -15 -9.5 -25.5t-24.5 -10.5q-16 0 -25.5 10.5t-9.5 25.5zM260 570q0 13 9.5 23.5t25.5 10.5q14 0 24 -10.5t10 -23.5q0 -14 -9.5 -25t-24.5 -11q-16 0 -25.5 11t-9.5 25z" unicode="÷"/>
<glyph glyph-name="oslash" horiz-adv-x="567" unicode="ø" d="M464 225q0 61 -31 108l-262 -257q47 -36 112 -36q80 0 130.5 51.5t50.5 133.5zM102 225q0 -70 37 -118l265 259q-49 44 -121 44q-78 0 -129.5 -52t-51.5 -133zM47 225q0 102 66 168t170 66q93 0 159 -56l51 50l29 -32l-50 -50q47 -61 47 -146q0 -102 -66 -168t-170 -66 q-86 0 -150 48l-53 -52l-30 33l51 50q-54 62 -54 155z"/>
<glyph glyph-name="ugrave" horiz-adv-x="544" unicode="ù" d="M284 542l-116 142l41 31l108 -150zM464 450v-450h-52v71q-27 -34 -73.5 -57t-97.5 -23q-172 0 -172 198v261h52v-250q0 -160 139 -160q44 0 86 23.5t66 54.5v332h52z"/>
<glyph glyph-name="uacute" horiz-adv-x="544" unicode="ú" d="M376 685l-116 -143l-32 23l108 151zM464 450v-450h-52v71q-27 -34 -73.5 -57t-97.5 -23q-172 0 -172 198v261h52v-250q0 -160 139 -160q44 0 86 23.5t66 54.5v332h52z"/>
<glyph glyph-name="ucircumflex" horiz-adv-x="544" unicode="û" d="M271 707l128 -131l-25 -32l-105 105l-107 -104l-26 31l131 131h4zM464 450v-450h-52v71q-27 -34 -73.5 -57t-97.5 -23q-172 0 -172 198v261h52v-250q0 -160 139 -160q44 0 86 23.5t66 54.5v332h52z"/>
<glyph glyph-name="udieresis" horiz-adv-x="544" unicode="ü" d="M343 618q0 15 9.5 24t24.5 9q12 0 21.5 -9.5t9.5 -23.5q0 -15 -9.5 -25t-21.5 -10q-15 0 -24.5 9.5t-9.5 25.5zM135 618q0 15 9.5 24t24.5 9q12 0 21.5 -9.5t9.5 -23.5q0 -15 -9.5 -25t-21.5 -10q-15 0 -24.5 9.5t-9.5 25.5zM464 450v-450h-52v71q-27 -34 -73.5 -57 t-97.5 -23q-172 0 -172 198v261h52v-250q0 -160 139 -160q44 0 86 23.5t66 54.5v332h52z"/>
<glyph glyph-name="yacute" horiz-adv-x="481" unicode="ý" d="M342 685l-116 -143l-32 23l108 151zM467 450l-182 -450q-48 -117 -84.5 -158.5t-84.5 -41.5q-38 0 -77 23l17 40q32 -15 53 -15q34 0 61 29.5t56 98.5l10 24l-222 450h62l154 -318l32 -70q5 17 25 72l121 316h59z"/>
<glyph glyph-name="thorn" horiz-adv-x="554" unicode="þ" d="M282 410q-45 0 -86.5 -20.5t-64.5 -49.5v-259q62 -41 140 -41q81 0 130.5 53t49.5 136q0 82 -44.5 131.5t-124.5 49.5zM79 -200v900h52v-307q28 29 72.5 47.5t92.5 18.5q96 0 153 -63t57 -164q0 -104 -64 -172.5t-167 -68.5q-92 0 -144 38v-229h-52z"/>
<glyph glyph-name="afii10023" horiz-adv-x="575" unicode="Ё" d="M388 804q0 15 11.5 23.5t27.5 8.5q14 0 24.5 -9t10.5 -23q0 -16 -10.5 -25t-24.5 -9q-17 0 -28 9t-11 25zM155 804q0 15 11 23.5t27 8.5q14 0 25 -9t11 -23q0 -16 -11 -25t-25 -9q-16 0 -27 9t-11 25zM111 0v700h387v-52h-332v-267h302v-52h-302v-277h342v-52h-397z"/>
<glyph glyph-name="afii10051" horiz-adv-x="760" unicode="Ђ" d="M706 204q0 -110 -45.5 -161.5t-123.5 -51.5q-29 0 -56.5 10.5t-38.5 21.5l20 43q31 -23 69 -23q120 0 120 160q0 168 -163 168q-15 0 -29.5 -2t-25 -3.5t-23.5 -6.5t-20 -7.5t-19.5 -9.5t-16 -9t-16.5 -10t-14 -9v-314h-55v648h-259v52h573v-52h-259v-282q83 57 175 57 q207 0 207 -219z"/>
<glyph glyph-name="afii10052" horiz-adv-x="503" unicode="Ѓ" d="M461 824l-182 -86l-16 31l179 99zM111 0v700h386v-52h-331v-648h-55z"/>
<glyph glyph-name="afii10053" horiz-adv-x="680" unicode="Є" d="M481 383v-52h-372q7 -132 92.5 -210t216.5 -78q107 0 198 66l23 -45q-96 -73 -226 -73q-161 0 -260 98t-99 261q0 158 96.5 258.5t253.5 100.5q142 0 221 -70l-25 -41q-74 59 -187 59q-130 0 -211 -75t-92 -199h371z"/>
<glyph glyph-name="afii10054" horiz-adv-x="546" unicode="Ѕ" d="M434 174q0 40 -20 69.5t-52 47.5t-70.5 33.5t-77 32t-70.5 38t-52 57t-20 82.5q0 76 55 125.5t150 49.5q58 0 108 -19t80 -52l-30 -41q-60 60 -156 60q-69 0 -109 -33.5t-40 -89.5q0 -40 20 -68.5t52 -46t70.5 -32t77 -31t70.5 -38t52 -58t20 -85.5q0 -82 -64 -133 t-159 -51q-65 0 -127.5 27.5t-87.5 73.5l33 38q30 -40 80.5 -63.5t100.5 -23.5q69 0 117.5 35t48.5 96z"/>
<glyph glyph-name="afii10055" horiz-adv-x="325" unicode="І" d="M135 0v700h55v-700h-55z"/>
<glyph glyph-name="afii10056" horiz-adv-x="325" unicode="Ї" d="M135 0v700h55v-700h-55zM203 804q0 14 10 23t25 9q13 0 22.5 -9t9.5 -23q0 -15 -9.5 -24.5t-22.5 -9.5q-15 0 -25 9.5t-10 24.5zM56 804q0 14 10 23t24 9q13 0 23 -9t10 -23q0 -15 -10 -24.5t-23 -9.5q-14 0 -24 9.5t-10 24.5z"/>
<glyph glyph-name="afii10057" horiz-adv-x="361" unicode="Ј" d="M250 700v-546q0 -163 -140 -163q-60 0 -96 32l20 43q31 -23 69 -23q52 0 72 31t20 88v538h55z"/>
<glyph glyph-name="afii10058" horiz-adv-x="1033" unicode="Љ" d="M716 377q-54 0 -103 -6v-318q90 -3 99 -3q102 0 155.5 43t53.5 127q0 75 -52.5 116t-152.5 41zM558 0v648h-294l-12 -132q-14 -160 -36.5 -268t-51.5 -159.5t-57 -70.5t-64 -19q-3 0 -8 0.5t-8 0.5l1 55h6q132 0 168 505l10 140h401v-276q72 5 106 5q130 0 195 -54.5 t65 -153.5q0 -108 -72 -165.5t-201 -57.5q-30 0 -79.5 1t-68.5 1z"/>
<glyph glyph-name="afii10059" horiz-adv-x="1068" unicode="Њ" d="M648 358v-305q93 -3 99 -3q102 0 155.5 41.5t53.5 122.5q0 73 -52 111.5t-153 38.5q-53 0 -103 -6zM111 0v700h55v-292h427v292h55v-289q72 5 106 5q130 0 195 -53t65 -149q0 -105 -72 -160.5t-201 -55.5q-24 0 -64.5 1t-57.5 1h-26v356h-427v-356h-55z"/>
<glyph glyph-name="afii10060" horiz-adv-x="760" unicode="Ћ" d="M10 648v52h573v-52h-259v-283q79 58 182 58q91 0 145.5 -55t54.5 -169v-199h-55v187q0 184 -159 184q-78 0 -168 -57v-314h-55v648h-259z"/>
<glyph glyph-name="afii10061" horiz-adv-x="637" unicode="Ќ" d="M479 824l-182 -86l-16 31l179 99zM111 0v700h55v-700h-55zM595 700l-331 -331l345 -369h-71l-339 365l329 335h67z"/>
<glyph glyph-name="afii10062" horiz-adv-x="652" unicode="Ў" d="M161 852h52q35 -71 125 -71q43 0 77 19.5t44 51.5h52q-10 -49 -59.5 -80t-113.5 -31q-68 0 -116 31t-61 80zM635 700l-244 -542q-37 -83 -74.5 -120.5t-87.5 -37.5q-48 0 -77 23l20 47q28 -19 56 -19q57 0 99 88l13 28l-323 533h62l288 -478l212 478h56z"/>
<glyph glyph-name="afii10145" horiz-adv-x="756" unicode="Џ" d="M111 0v700h55v-648h424v648h55v-700h-242v-157h-52v157h-240z"/>
<glyph glyph-name="afii10017" horiz-adv-x="697" unicode="А" d="M347 630l-146 -340h291zM21 0l305 706h45l305 -706h-59l-102 238h-336l-102 -238h-56z"/>
<glyph glyph-name="afii10018" horiz-adv-x="610" unicode="Б" d="M282 365q-64 0 -116 -6v-307q99 -3 110 -3q101 0 153 42t52 121q0 72 -50.5 112.5t-148.5 40.5zM111 0v700h386v-52h-331v-237q62 6 118 6q122 0 187 -53.5t65 -148.5q0 -106 -70.5 -162t-197.5 -56q-34 0 -86.5 1.5t-70.5 1.5z"/>
<glyph glyph-name="afii10019" horiz-adv-x="617" unicode="В" d="M293 651q-43 0 -127 -3v-266h136q68 0 113.5 37t45.5 100q0 132 -168 132zM299 333h-133v-280q112 -4 130 -4q92 0 142 38t50 112q0 64 -49 99t-140 35zM111 1v698q156 4 184 4q221 0 221 -173q0 -66 -38.5 -108t-97.5 -56v-2q77 -9 120 -52.5t43 -115.5 q0 -100 -68 -149.5t-181 -49.5q-101 0 -183 4z"/>
<glyph glyph-name="afii10020" horiz-adv-x="503" unicode="Г" d="M111 0v700h386v-52h-331v-648h-55z"/>
<glyph glyph-name="afii10021" horiz-adv-x="743" unicode="Д" d="M265 520q-13 -191 -48 -312t-64 -156h406v596h-286zM17 -134v186h75q34 43 72 171.5t49 336.5l7 140h394v-648h95v-186h-52v134h-588v-134h-52z"/>
<glyph glyph-name="afii10022" horiz-adv-x="575" unicode="Е" d="M111 0v700h387v-52h-332v-267h302v-52h-302v-277h342v-52h-397z"/>
<glyph glyph-name="afii10024" horiz-adv-x="918" unicode="Ж" d="M338 365l-299 335h65l295 -335l-306 -365h-65zM431 0v700h55v-700h-55zM879 700l-299 -334l310 -366h-65l-306 365l295 335h65z"/>
<glyph glyph-name="afii10025" horiz-adv-x="573" unicode="З" d="M265 -9q-68 0 -130 30t-91 73l31 37q34 -40 87 -64t99 -24q83 0 133 42.5t50 115.5q0 60 -40 95.5t-109 35.5h-87v52h81q50 0 89 40.5t39 99.5q0 64 -41 98.5t-106 34.5q-104 0 -174 -80l-32 35q36 45 91 71t119 26q90 0 144 -48t54 -133q0 -50 -28 -96t-78 -69v-3 q62 -9 97.5 -55t35.5 -109q0 -94 -67 -149.5t-167 -55.5z"/>
<glyph glyph-name="afii10026" horiz-adv-x="797" unicode="И" d="M160 0h-49v700h55v-610l471 610h49v-700h-55v610z"/>
<glyph glyph-name="afii10027" horiz-adv-x="797" unicode="Й" d="M224 852h52q36 -71 125 -71q43 0 77 19.5t44 51.5h52q-10 -49 -59.5 -80t-113.5 -31q-68 0 -116 31t-61 80zM160 0h-49v700h55v-610l471 610h49v-700h-55v610z"/>
<glyph glyph-name="afii10028" horiz-adv-x="637" unicode="К" d="M111 0v700h55v-700h-55zM595 700l-331 -331l345 -369h-71l-339 365l329 335h67z"/>
<glyph glyph-name="afii10029" horiz-adv-x="724" unicode="Л" d="M558 0v648h-294l-12 -132q-14 -160 -36.5 -268t-51.5 -159.5t-57 -70.5t-64 -19q-3 0 -8 0.5t-8 0.5l1 55h6q132 0 168 505l10 140h401v-700h-55z"/>
<glyph glyph-name="afii10030" horiz-adv-x="884" unicode="М" d="M111 0v700h56l282 -384l271 384h53v-700h-55v614l-269 -378h-9l-274 375v-611h-55z"/>
<glyph glyph-name="afii10031" horiz-adv-x="769" unicode="Н" d="M603 0v331h-437v-331h-55v700h55v-317h437v317h55v-700h-55z"/>
<glyph glyph-name="afii10032" horiz-adv-x="810" unicode="О" d="M112 350q0 -131 84.5 -219t208.5 -88q127 0 210 88t83 219q0 132 -84.5 219.5t-208.5 87.5q-125 0 -209 -87.5t-84 -219.5zM54 350q0 153 100 256t251 103q150 0 250.5 -101.5t100.5 -257.5q0 -154 -100.5 -256.5t-250.5 -102.5t-250.5 101.5t-100.5 257.5z"/>
<glyph glyph-name="afii10033" horiz-adv-x="766" unicode="П" d="M600 0v648h-434v-648h-55v700h544v-700h-55z"/>
<glyph glyph-name="afii10034" horiz-adv-x="585" unicode="Р" d="M287 650q-55 0 -121 -2v-314q65 -5 114 -5q93 0 143 44.5t50 118.5q0 72 -45.5 115t-140.5 43zM166 0h-55v700q19 0 85 1t86 1q70 0 120.5 -18t77.5 -49t39 -66.5t12 -77.5q0 -90 -63 -152t-186 -62q-63 0 -116 4v-281z"/>
<glyph glyph-name="afii10035" horiz-adv-x="656" unicode="С" d="M600 109l22 -41q-36 -36 -95 -56.5t-122 -20.5q-157 0 -254 98t-97 261q0 154 94 256.5t249 102.5q133 0 212 -66l-26 -41q-72 55 -185 55q-127 0 -206.5 -86.5t-79.5 -220.5q0 -137 82.5 -222t214.5 -85q110 0 191 66z"/>
<glyph glyph-name="afii10036" horiz-adv-x="593" unicode="Т" d="M10 648v52h573v-52h-259v-648h-55v648h-259z"/>
<glyph glyph-name="afii10037" horiz-adv-x="652" unicode="У" d="M635 700l-244 -542q-37 -83 -74.5 -120.5t-87.5 -37.5q-48 0 -77 23l20 47q28 -19 56 -19q57 0 99 88l13 28l-323 533h62l288 -478l212 478h56z"/>
<glyph glyph-name="afii10038" horiz-adv-x="830" unicode="Ф" d="M102 360q0 -108 76.5 -167t203.5 -59h4v452h-2q-129 0 -205.5 -59.5t-76.5 -166.5zM445 586h-4v-452h7q128 0 204 58t76 168q0 108 -76 167t-207 59zM386 -8v91h-5q-152 0 -244.5 73.5t-92.5 203.5q0 131 92.5 204t248.5 73h1v71h55v-71h2q158 0 250.5 -73.5t92.5 -203.5 t-93 -203.5t-245 -73.5h-7v-91h-55z"/>
<glyph glyph-name="afii10039" horiz-adv-x="660" unicode="Х" d="M623 700l-257 -344l266 -356h-66l-236 314l-237 -314h-65l267 356l-256 344h65l227 -302l226 302h66z"/>
<glyph glyph-name="afii10040" horiz-adv-x="779" unicode="Ц" d="M111 0v700h55v-648h429v648h55v-648h95v-186h-52v134h-582z"/>
<glyph glyph-name="afii10041" horiz-adv-x="636" unicode="Ч" d="M525 700v-700h-55v321q-85 -59 -199 -59q-92 0 -150 55t-58 169v214h55v-202q0 -93 44.5 -138.5t122.5 -45.5q91 0 185 59v327h55z"/>
<glyph glyph-name="afii10042" horiz-adv-x="993" unicode="Ш" d="M111 0v700h55v-648h303v648h55v-648h303v648h55v-700h-771z"/>
<glyph glyph-name="afii10043" horiz-adv-x="1011" unicode="Щ" d="M111 0v700h55v-648h303v648h55v-648h303v648h55v-648h95v-186h-52v134h-814z"/>
<glyph glyph-name="afii10044" horiz-adv-x="666" unicode="Ъ" d="M346 377q-61 0 -110 -6v-318q90 -3 106 -3q102 0 157 43t55 127q0 76 -53.5 116.5t-154.5 40.5zM3 648v52h233v-276q72 5 113 5q132 0 197.5 -54.5t65.5 -153.5q0 -108 -73 -165.5t-203 -57.5q-30 0 -83 1t-72 1v648h-178z"/>
<glyph glyph-name="afii10045" horiz-adv-x="829" unicode="Ы" d="M166 700v-276q72 5 106 5q130 0 195 -54.5t65 -153.5q0 -107 -72.5 -165t-200.5 -58q-30 0 -79.5 1t-68.5 1v700h55zM269 377q-53 0 -103 -6v-318q93 -3 99 -3q102 0 155.5 43t53.5 127q0 76 -52.5 116.5t-152.5 40.5zM663 0v700h55v-700h-55z"/>
<glyph glyph-name="afii10046" horiz-adv-x="596" unicode="Ь" d="M166 700v-276q72 5 113 5q132 0 197.5 -54.5t65.5 -153.5q0 -108 -73 -165.5t-203 -57.5q-30 0 -83 1t-72 1v700h55zM276 377q-60 0 -110 -6v-318q93 -3 106 -3q102 0 157 43t55 127q0 76 -53.5 116.5t-154.5 40.5z"/>
<glyph glyph-name="afii10047" horiz-adv-x="680" unicode="Э" d="M198 331v52h372q-10 127 -92 200.5t-214 73.5q-113 0 -187 -59l-23 41q79 70 222 70q158 0 254 -96.5t96 -259.5q0 -158 -97 -260t-256 -102q-136 0 -232 73l25 45q93 -66 206 -66q128 0 209.5 79.5t88.5 208.5h-372z"/>
<glyph glyph-name="afii10048" horiz-adv-x="1076" unicode="Ю" d="M401 350q0 -132 80 -219.5t201 -87.5q127 0 204.5 87t77.5 220t-79 220t-203 87q-122 0 -201.5 -87t-79.5 -220zM111 0v700h55v-317h178q11 141 104.5 233.5t232.5 92.5q149 0 245 -101t96 -258q0 -155 -96 -257t-245 -102q-141 0 -236 95.5t-102 244.5h-177v-331h-55z "/>
<glyph glyph-name="afii10049" horiz-adv-x="615" unicode="Я" d="M286 326h163v322q-84 3 -110 3q-94 0 -144 -47.5t-50 -121.5q0 -60 42.5 -103.5t98.5 -52.5zM449 0v274h-156l-199 -274h-63l208 282q-64 21 -108 73.5t-44 123.5q0 98 67 161t195 63q25 0 80 -1.5t75 -1.5v-700h-55z"/>
<glyph glyph-name="afii10065" horiz-adv-x="459" unicode="а" d="M199 43q84 0 138 71v75q-49 36 -117 36q-49 0 -85 -24t-36 -70q0 -41 28.5 -64.5t71.5 -23.5zM93 375l-14 43q66 41 143 41q90 0 128.5 -45t38.5 -135v-279h-52v69q-55 -75 -154 -75q-63 0 -101 36.5t-38 97.5q0 66 48 103t123 37t122 -34q0 38 -1.5 60t-8 47.5 t-18.5 38.5t-34.5 21.5t-55.5 8.5q-62 0 -126 -35z"/>
<glyph glyph-name="afii10066" horiz-adv-x="555" unicode="б" d="M101 259q0 -102 49.5 -160.5t127.5 -58.5q75 0 125 52t50 127q0 80 -45.5 129.5t-125.5 49.5q-72 0 -120.5 -42t-60.5 -97zM435 710l29 -39q-22 -33 -56 -44.5t-87 -19.5t-94 -26q-116 -50 -129 -256h2q23 55 77 88.5t117 33.5q99 0 156.5 -62t57.5 -164q0 -96 -65 -163 t-163 -67q-107 0 -170.5 74t-63.5 203q0 295 165 363q43 18 93.5 25.5t80.5 16.5t50 37z"/>
<glyph glyph-name="afii10067" horiz-adv-x="481" unicode="в" d="M230 404q-49 0 -99 -2v-152h119q49 0 77 21.5t28 57.5q0 75 -125 75zM239 207h-108v-159q58 -2 101 -2q140 0 140 83q0 78 -133 78zM79 0v450q17 0 64.5 1.5t80.5 1.5q93 0 139.5 -28t46.5 -88q0 -38 -24 -67t-67 -36v-2q108 -17 108 -108q0 -127 -201 -127 q-30 0 -79 1.5t-68 1.5z"/>
<glyph glyph-name="afii10068" horiz-adv-x="353" unicode="г" d="M79 0v450h271v-49h-219v-401h-52z"/>
<glyph glyph-name="afii10069" horiz-adv-x="525" unicode="д" d="M189 303q-7 -90 -27.5 -159.5t-40.5 -94.5h260v352h-186zM10 -114v163h56q24 31 45.5 103.5t27.5 170.5l7 127h287v-401h75v-163h-49v114h-400v-114h-49z"/>
<glyph glyph-name="afii10070" horiz-adv-x="524" unicode="е" d="M270 410q-73 0 -117 -42.5t-51 -110.5h324q-1 71 -43 112t-113 41zM435 95l17 -40q-61 -64 -166 -64q-107 0 -173 64t-66 170q0 102 60.5 168t167.5 66q88 0 146 -56t58 -147q0 -24 -3 -42h-371q3 -81 53 -127.5t131 -46.5q93 0 146 55z"/>
<glyph glyph-name="afii10072" horiz-adv-x="655" unicode="ж" d="M210 234l-180 216h64l174 -216l-184 -234h-63zM300 0v450h52v-450h-52zM622 450l-180 -216l192 -234h-63l-187 234l175 216h63z"/>
<glyph glyph-name="afii10073" horiz-adv-x="458" unicode="з" d="M218 -9q-48 0 -102 17t-75 43l27 40q27 -25 67 -38t75 -13q63 0 101 24.5t38 67.5q0 35 -28 55t-76 20h-76v43h71q38 0 65 24t27 58q0 38 -30.5 58t-83.5 20q-80 0 -141 -50l-21 40q57 59 169 59q78 0 120 -31.5t42 -86.5q0 -79 -81 -108v-2q47 -4 72.5 -34.5t25.5 -71.5 q0 -62 -51.5 -98t-134.5 -36z"/>
<glyph glyph-name="afii10074" horiz-adv-x="562" unicode="и" d="M131 0h-52v450h52v-375l300 375h52v-450h-52v375z"/>
<glyph glyph-name="afii10075" horiz-adv-x="562" unicode="й" d="M148 684h47q0 -37 26 -62.5t67 -25.5q39 0 64 25.5t25 62.5h47q0 -55 -38 -91.5t-98 -36.5q-65 0 -102.5 36t-37.5 92zM131 0h-52v450h52v-375l300 375h52v-450h-52v375z"/>
<glyph glyph-name="afii10076" horiz-adv-x="484" unicode="к" d="M79 0v450h52v-450h-52zM446 450l-222 -215l240 -235h-70l-233 232l218 218h67z"/>
<glyph glyph-name="afii10077" horiz-adv-x="527" unicode="л" d="M396 0v398h-190l-6 -98q-7 -95 -23 -158.5t-39.5 -93.5t-46.5 -41t-53 -11l-4 51h2q11 0 22.5 4.5t27 21.5t27.5 44t22.5 77t14.5 116l7 140h291v-450h-52z"/>
<glyph glyph-name="afii10078" horiz-adv-x="622" unicode="м" d="M79 0v450h49l187 -251l180 251h47v-450h-52v371l-175 -243h-3l-181 243v-371h-52z"/>
<glyph glyph-name="afii10079" horiz-adv-x="554" unicode="н" d="M423 0v204h-292v-204h-52v450h52v-197h292v197h52v-450h-52z"/>
<glyph glyph-name="afii10080" horiz-adv-x="567" unicode="о" d="M102 225q0 -81 51 -133t130 -52q80 0 130.5 51.5t50.5 133.5q0 81 -51 133t-130 52q-78 0 -129.5 -52t-51.5 -133zM47 225q0 102 66 168t170 66t170 -66t66 -168t-66 -168t-170 -66t-170 66t-66 168z"/>
<glyph glyph-name="afii10081" horiz-adv-x="549" unicode="п" d="M418 0v401h-287v-401h-52v450h391v-450h-52z"/>
<glyph glyph-name="afii10082" horiz-adv-x="554" unicode="р" d="M282 410q-45 0 -86.5 -20.5t-64.5 -49.5v-259q62 -41 140 -41q81 0 130.5 53t49.5 136q0 82 -44.5 131.5t-124.5 49.5zM79 -200v650h52v-60q26 30 71.5 49.5t93.5 19.5q96 0 153 -63t57 -164q0 -104 -64 -172.5t-167 -68.5q-92 0 -144 38v-229h-52z"/>
<glyph glyph-name="afii10083" horiz-adv-x="490" unicode="с" d="M429 102l26 -38q-28 -35 -73.5 -54t-96.5 -19q-105 0 -171.5 64t-66.5 170q0 99 64 166.5t160 67.5q116 0 175 -56l-25 -42q-54 49 -142 49q-73 0 -125 -53t-52 -132q0 -84 53 -134.5t134 -50.5q87 0 140 62z"/>
<glyph glyph-name="afii10084" horiz-adv-x="436" unicode="т" d="M13 398v52h410v-52h-179v-398h-52v398h-179z"/>
<glyph glyph-name="afii10085" horiz-adv-x="481" unicode="у" d="M467 450l-182 -450q-48 -117 -84.5 -158.5t-84.5 -41.5q-38 0 -77 23l17 40q32 -15 53 -15q34 0 61 29.5t56 98.5l10 24l-222 450h62l154 -318l32 -70q5 17 25 72l121 316h59z"/>
<glyph glyph-name="afii10086" horiz-adv-x="665" unicode="ф" d="M375 410h-17v-370h13q90 0 140.5 51t50.5 134q0 77 -50.5 131t-136.5 54zM102 225q0 -82 51.5 -133.5t140.5 -51.5h12v370h-17q-86 0 -136.5 -53t-50.5 -132zM306 -200v191h-15q-112 0 -178 65.5t-66 168.5q0 96 66.5 165t176.5 69h16v241h52v-241h17q108 0 175 -66.5 t67 -167.5q0 -103 -64.5 -168.5t-177.5 -65.5h-17v-191h-52z"/>
<glyph glyph-name="afii10087" horiz-adv-x="495" unicode="х" d="M454 450l-169 -218l179 -232h-64l-154 199l-154 -199h-61l179 230l-169 220h64l143 -186l145 186h61z"/>
<glyph glyph-name="afii10088" horiz-adv-x="559" unicode="ц" d="M79 0v450h52v-401h284v401h52v-401h75v-163h-49v114h-414z"/>
<glyph glyph-name="afii10089" horiz-adv-x="475" unicode="ч" d="M396 450v-450h-52v190q-56 -38 -135 -38q-158 0 -158 169v129h55v-125q0 -124 117 -124q72 0 121 36v213h52z"/>
<glyph glyph-name="afii10090" horiz-adv-x="705" unicode="ш" d="M79 0v450h52v-401h195v401h52v-401h195v401h52v-450h-546z"/>
<glyph glyph-name="afii10091" horiz-adv-x="717" unicode="щ" d="M79 0v450h52v-401h195v401h52v-401h195v401h52v-401h75v-163h-49v114h-572z"/>
<glyph glyph-name="afii10092" horiz-adv-x="500" unicode="ъ" d="M272 250h-78v-201h77q71 0 102 25.5t31 75.5q0 100 -132 100zM3 401v49h191v-151h87q178 0 178 -148q0 -66 -43.5 -108.5t-141.5 -42.5h-132v401h-139z"/>
<glyph glyph-name="afii10093" horiz-adv-x="621" unicode="ы" d="M490 0v450h52v-450h-52zM200 250h-69v-201h68q72 0 102.5 25.5t30.5 75.5q0 100 -132 100zM79 0v450h52v-151h78q178 0 178 -148q0 -66 -43 -108.5t-141 -42.5h-124z"/>
<glyph glyph-name="afii10094" horiz-adv-x="437" unicode="ь" d="M209 250h-78v-201h77q71 0 102 25.5t31 75.5q0 100 -132 100zM79 0v450h52v-151h87q178 0 178 -148q0 -66 -43.5 -108.5t-141.5 -42.5h-132z"/>
<glyph glyph-name="afii10095" horiz-adv-x="491" unicode="э" d="M152 208v43h237q-7 76 -57 117.5t-126 41.5q-90 0 -146 -56l-23 39q29 31 75.5 48.5t92.5 17.5q105 0 171.5 -64t66.5 -170q0 -99 -64 -166.5t-160 -67.5q-118 0 -177 55l25 39q51 -45 148 -45q73 0 121.5 46t53.5 122h-238z"/>
<glyph glyph-name="afii10096" horiz-adv-x="750" unicode="ю" d="M305 225q0 -81 47.5 -131.5t122.5 -50.5t122 50.5t47 131.5t-47 131.5t-122 50.5t-122.5 -50.5t-47.5 -131.5zM79 0v450h55v-194h114q10 90 71 146.5t154 56.5q101 0 165 -66t64 -168t-64 -168t-165 -66q-95 0 -157 59.5t-69 153.5h-113v-204h-55z"/>
<glyph glyph-name="afii10097" horiz-adv-x="477" unicode="я" d="M130 307q0 -40 31 -65t66 -25h119v184h-91q-64 0 -94.5 -26t-30.5 -68zM264 450h134v-450h-52v168h-112l-129 -168h-64l142 180q-43 7 -75.5 41.5t-32.5 86.5q0 62 45 102t144 40z"/>
<glyph glyph-name="afii10071" horiz-adv-x="524" unicode="ё" d="M339 618q0 15 9.5 24t24.5 9q12 0 21.5 -9.5t9.5 -23.5q0 -15 -9.5 -25t-21.5 -10q-15 0 -24.5 9.5t-9.5 25.5zM131 618q0 15 9.5 24t24.5 9q12 0 21.5 -9.5t9.5 -23.5q0 -15 -9.5 -25t-21.5 -10q-15 0 -24.5 9.5t-9.5 25.5zM270 410q-73 0 -117 -42.5t-51 -110.5h324 q-1 71 -43 112t-113 41zM435 95l17 -40q-61 -64 -166 -64q-107 0 -173 64t-66 170q0 102 60.5 168t167.5 66q88 0 146 -56t58 -147q0 -24 -3 -42h-371q3 -81 53 -127.5t131 -46.5q93 0 146 55z"/>
<glyph glyph-name="afii10099" horiz-adv-x="601" unicode="ђ" d="M3 482v43h140v175h52v-175h198v-43h-198v-178q28 30 72 49t89 19q189 0 189 -201q0 -117 -46 -218.5t-132 -152.5h-59q96 61 140.5 157.5t44.5 200.5q0 165 -148 165q-44 0 -85.5 -20t-64.5 -49v-254h-52v482h-140z"/>
<glyph glyph-name="afii10100" horiz-adv-x="353" unicode="ѓ" d="M333 685l-116 -143l-32 23l108 151zM79 0v450h271v-49h-219v-401h-52z"/>
<glyph glyph-name="afii10101" horiz-adv-x="490" unicode="є" d="M338 251v-43h-239q6 -79 58.5 -123.5t130.5 -44.5q87 0 138 45l22 -39q-59 -55 -169 -55q-102 0 -167 65.5t-65 168.5q0 106 66.5 170t171.5 64q46 0 92.5 -17.5t75.5 -48.5l-23 -39q-56 56 -146 56q-75 0 -125.5 -42t-58.5 -117h238z"/>
<glyph glyph-name="afii10102" horiz-adv-x="418" unicode="ѕ" d="M312 118q0 31 -25.5 50t-62 30t-73.5 24.5t-62.5 42.5t-25.5 75q0 54 40 86.5t105 32.5q93 0 141 -50l-22 -39q-46 43 -118 43q-41 0 -66 -21t-25 -51q0 -33 25.5 -53t62 -31.5t73.5 -24.5t62.5 -40.5t25.5 -71.5q0 -63 -46.5 -96t-115.5 -33q-46 0 -92 20t-62 45l29 34 q18 -23 57 -38t74 -15q42 0 71.5 21t29.5 60z"/>
<glyph glyph-name="afii10103" horiz-adv-x="261" unicode="і" d="M95 625q0 15 11 24t26 9q13 0 23.5 -9.5t10.5 -23.5q0 -17 -10 -27t-24 -10q-16 0 -26.5 10t-10.5 27zM104 0v450h52v-450h-52z"/>
<glyph glyph-name="afii10104" horiz-adv-x="276" unicode="ї" d="M111 0v450h52v-450h-52zM173 617q0 13 9 21.5t22 8.5q12 0 20.5 -8.5t8.5 -21.5q0 -14 -8.5 -22.5t-20.5 -8.5q-13 0 -22 8.5t-9 22.5zM44 617q0 13 9 21.5t22 8.5q11 0 20 -8.5t9 -21.5q0 -14 -9 -22.5t-20 -8.5q-13 0 -22 8.5t-9 22.5z"/>
<glyph glyph-name="afii10105" horiz-adv-x="264" unicode="ј" d="M97 625q0 15 11 24t26 9q13 0 23.5 -9.5t10.5 -23.5q0 -17 -10 -27t-24 -10q-16 0 -26.5 10t-10.5 27zM159 450v-483q0 -175 -141 -175q-57 0 -92 28l16 42q31 -21 65 -21q100 0 100 130v479h52z"/>
<glyph glyph-name="afii10106" horiz-adv-x="742" unicode="љ" d="M514 250h-66v-201h65q71 0 102 25.5t31 75.5q0 100 -132 100zM396 0v398h-190l-6 -98q-7 -95 -23 -158.5t-39.5 -93.5t-46.5 -41t-53 -11l-4 51h2q11 0 22.5 4.5t27 21.5t27.5 44t22.5 77t14.5 116l7 140h291v-151h75q178 0 178 -148q0 -66 -43.5 -108.5t-141.5 -42.5 h-120z"/>
<glyph glyph-name="afii10107" horiz-adv-x="769" unicode="њ" d="M541 236h-66v-187h65q73 0 103 22.5t30 71.5q0 48 -31 70.5t-101 22.5zM79 0v450h52v-183h292v183h52v-165h75q178 0 178 -141q0 -144 -185 -144h-120v218h-292v-218h-52z"/>
<glyph glyph-name="afii10108" horiz-adv-x="601" unicode="ћ" d="M3 482v43h140v175h52v-175h198v-43h-198v-178q28 30 72 49t89 19q189 0 189 -202v-170h-52v162q0 161 -148 161q-44 0 -85.5 -20t-64.5 -49v-254h-52v482h-140z"/>
<glyph glyph-name="afii10109" horiz-adv-x="484" unicode="ќ" d="M351 685l-116 -143l-32 23l108 151zM79 0v450h52v-450h-52zM446 450l-222 -215l240 -235h-70l-233 232l218 218h67z"/>
<glyph glyph-name="afii10110" horiz-adv-x="481" unicode="ў" d="M108 684h47q0 -37 26 -62.5t67 -25.5q39 0 64 25.5t25 62.5h47q0 -55 -38 -91.5t-98 -36.5q-65 0 -102.5 36t-37.5 92zM467 450l-182 -450q-48 -117 -84.5 -158.5t-84.5 -41.5q-38 0 -77 23l17 40q32 -15 53 -15q34 0 61 29.5t56 98.5l10 24l-222 450h62l154 -318l32 -70 q5 17 25 72l121 316h59z"/>
<glyph glyph-name="afii10193" horiz-adv-x="539" unicode="џ" d="M79 0v450h52v-401h277v401h52v-450h-166v-131h-49v131h-166z"/>
<glyph glyph-name="afii10146" horiz-adv-x="632" unicode="Ѣ" d="M312 365q-61 0 -110 -6v-306q90 -3 106 -3q212 0 212 164q0 151 -208 151zM202 700v-116h165v-52h-165v-120q72 5 113 5q263 0 263 -202q0 -107 -72.5 -162t-203.5 -55q-30 0 -83 1t-72 1v532h-141v52h141v116h55z"/>
<glyph glyph-name="afii10194" horiz-adv-x="498" unicode="ѣ" d="M279 232h-85v-183h84q67 0 95.5 23.5t28.5 68.5q0 91 -123 91zM3 401v49h139v250h52v-250h160v-49h-160v-120h85q178 0 178 -143q0 -138 -185 -138h-130v401h-139z"/>
<glyph glyph-name="afii10147" horiz-adv-x="810" unicode="Ѳ" d="M548 334q38 0 79 18.5t68 42.5q-15 115 -96 188.5t-194 73.5q-123 0 -206.5 -85t-86.5 -214q80 63 164 63q58 0 138.5 -43.5t133.5 -43.5zM274 372q-41 0 -85.5 -21.5t-73.5 -47.5q15 -114 96.5 -187t193.5 -73q125 0 207.5 85t85.5 213q-79 -56 -154 -56 q-58 0 -137 43.5t-133 43.5zM54 350q0 153 100 256t251 103q150 0 250.5 -101.5t100.5 -257.5q0 -154 -100.5 -256.5t-250.5 -102.5t-250.5 101.5t-100.5 257.5z"/>
<glyph glyph-name="afii10195" horiz-adv-x="567" unicode="ѳ" d="M395 211q35 0 69 24q-4 77 -54.5 126t-126.5 49q-69 0 -118 -41t-60 -108q40 26 81 26q43 0 109.5 -38t99.5 -38zM185 238q-44 0 -83 -32q6 -74 56.5 -120t124.5 -46q68 0 116 39t61 103q-34 -20 -70 -20q-40 0 -106 38t-99 38zM47 225q0 102 66 168t170 66t170 -66 t66 -168t-66 -168t-170 -66t-170 66t-66 168z"/>
<glyph glyph-name="afii10148" horiz-adv-x="657" unicode="Ѵ" d="M535 508l-184 -514h-39l-301 706h59l263 -620l162 466q31 89 60 124.5t71 35.5q17 0 51 -9l-9 -48q-21 7 -31 7q-31 0 -51.5 -33t-50.5 -115z"/>
<glyph glyph-name="afii10196" horiz-adv-x="479" unicode="ѵ" d="M386 304l-121 -310h-36l-218 456h61l136 -283q17 -38 40 -96l35 99l64 166q25 67 48 94t56 27q18 0 48 -10l-9 -48q-13 7 -25 7q-22 0 -38.5 -24t-40.5 -78z"/>
<glyph glyph-name="afii10050" horiz-adv-x="503" unicode="Ґ" d="M111 0v700h334v131h52v-183h-331v-648h-55z"/>
<glyph glyph-name="afii10098" horiz-adv-x="353" unicode="ґ" d="M79 0v450h222v111h49v-160h-219v-401h-52z"/>
</font>
</defs>
</svg>
